<svg width="27" height="27" viewBox="0 0 27 27" fill="none" xmlns="http://www.w3.org/2000/svg">
<path d="M3.5 6C1.9375 8.0875 1 10.6875 1 13.5C1 20.4 6.6 26 13.5 26C20.4 26 26 20.4 26 13.5C26 6.6 20.4 1 13.5 1C11.7125 1 10 1.375 8.4625 2.0625" stroke="white" stroke-width="1.5" stroke-linecap="round" stroke-linejoin="round"/>
<path d="M16.678 7.81C16.898 8.25 17.028 8.75 17.028 9.28C17.018 11.05 15.628 12.5 13.868 12.55C13.7883 12.54 13.7077 12.54 13.628 12.55C12.7799 12.5215 11.9762 12.1644 11.3865 11.5542C10.7969 10.944 10.4675 10.1285 10.468 9.28C10.468 7.47 11.928 6 13.748 6M20.48 19.149C18.6423 20.8381 16.236 21.7734 13.74 21.769C11.14 21.769 8.78 20.779 7 19.149C7.1 18.209 7.7 17.289 8.77 16.569C11.51 14.749 15.99 14.749 18.71 16.569C19.78 17.289 20.38 18.209 20.48 19.149Z" stroke="white" stroke-width="1.5" stroke-linecap="round" stroke-linejoin="round"/>
</svg>