<svg width="126" height="123" viewBox="0 0 126 123" fill="none" xmlns="http://www.w3.org/2000/svg">
<path id="1" d="M125.959 92.2469C120.035 101.596 111.515 109.36 101.254 114.758C90.9936 120.157 79.3543 122.999 67.5059 123C55.6575 123.001 44.0175 120.16 33.7559 114.764C23.4943 109.367 14.9726 101.604 9.04721 92.2562C3.12182 82.9079 0.00155153 72.3033 5.78465e-07 61.508C-0.00155037 50.7128 3.11567 40.1075 9.03837 30.7577C14.9611 21.408 23.4806 13.6435 33.7406 8.24436C44.0007 2.84526 55.6398 0.00188412 67.4882 0L67.4921 20.5C59.5932 20.5013 51.8338 22.3968 44.9938 25.9962C38.1537 29.5956 32.474 34.772 28.5256 41.0052C24.5771 47.2383 22.499 54.3086 22.5 61.5054C22.501 68.7022 24.5812 75.7719 28.5315 82.0041C32.4817 88.2363 38.1629 93.4114 45.004 97.0091C51.845 100.607 59.605 102.501 67.5039 102.5C75.4028 102.499 83.1624 100.604 90.0028 97.0055C96.8432 93.4067 102.523 88.2308 106.472 81.9979L125.959 92.2469Z" fill="#D9D9D9"/>
</svg>
