<svg width="99" height="111" viewBox="0 0 99 111" fill="none" xmlns="http://www.w3.org/2000/svg">
<path id="1" d="M98.9008 83.2472C94.2497 91.6843 87.5598 98.6908 79.5033 103.562C71.4469 108.434 62.3078 110.999 53.0046 111C43.7014 111.001 34.5619 108.437 26.5047 103.567C18.4474 98.6971 11.7563 91.6919 7.10373 83.2556C2.45121 74.8193 0.00121824 65.2493 4.54202e-07 55.5073C-0.00121733 45.7653 2.44638 36.1945 7.0968 27.757C11.7472 19.3195 18.4366 12.3124 26.4926 7.44003C34.5487 2.56767 43.6875 0.0017003 52.9907 0L52.9938 18.5C46.7917 18.5011 40.6991 20.2118 35.3284 23.46C29.9577 26.7083 25.4981 31.3796 22.3979 37.0047C19.2976 42.6297 17.6658 49.0102 17.6667 55.5048C17.6675 61.9995 19.3008 68.3796 22.4025 74.0037C25.5042 79.6279 29.9649 84.2981 35.3364 87.5448C40.7079 90.7916 46.8009 92.5006 53.0031 92.5C59.2052 92.4994 65.2979 90.7893 70.6689 87.5416C76.0398 84.2938 80.4998 79.6229 83.6006 73.9981L98.9008 83.2472Z" fill="#FFB800"/>
</svg>
