<svg width="152" height="96" viewBox="0 0 152 96" fill="none" xmlns="http://www.w3.org/2000/svg">
<g id="g4l-logo 1" clip-path="url(#clip0_570_125)">
<path id="Vector" d="M3.37746 85.7915C2.79935 85.8022 2.22237 85.7363 1.66155 85.5955C1.25246 85.4921 0.867117 85.3108 0.526613 85.0614C0.253566 84.8609 0.0371043 84.5931 -0.101653 84.2839C-0.234273 83.9934 -0.301169 83.6771 -0.297564 83.3577C-0.301611 83.0852 -0.262857 82.8137 -0.18272 82.5532C-0.109976 82.3053 -0.0126629 82.0652 0.107769 81.8366C0.225415 81.5998 0.363291 81.3736 0.519858 81.1606C0.66848 80.9577 0.830613 80.7685 0.992747 80.5792L1.5467 80.7752C1.43482 81.0511 1.34668 81.3361 1.28324 81.627C1.22303 81.9071 1.19134 82.1925 1.18866 82.4789C1.17893 82.7505 1.23534 83.0204 1.35302 83.2654C1.47071 83.5104 1.64614 83.723 1.86421 83.8851C2.40053 84.2556 3.04408 84.4386 3.69497 84.4056C4.37622 84.4117 5.05601 84.3414 5.72164 84.1961C6.29222 84.0775 6.83393 83.8478 7.31595 83.52C7.61043 83.2856 7.83095 82.971 7.95097 82.6141C8.09583 82.2016 8.16673 81.7667 8.16039 81.3296C8.17906 81.0964 8.14014 80.8622 8.04708 80.6477C7.95401 80.4331 7.80965 80.2447 7.6267 80.0992C7.07179 79.781 6.4332 79.6395 5.79595 79.6935H4.01248C3.05274 79.7459 2.09426 79.5698 1.21568 79.1797C0.929618 79.0198 0.695051 78.7816 0.539498 78.493C0.383945 78.2045 0.313857 77.8775 0.337458 77.5504C0.339416 77.3179 0.387644 77.0881 0.479324 76.8744C0.57369 76.6366 0.693751 76.4099 0.837369 76.1983C0.989608 75.9816 1.15427 75.774 1.33052 75.5763C1.50721 75.3879 1.69441 75.2095 1.89124 75.0423C1.29096 74.684 0.791243 74.1792 0.438791 73.5752C0.0327925 72.8399 -0.165701 72.008 -0.135431 71.1684C-0.143698 70.5129 -0.0291272 69.8617 0.202347 69.2484C0.404866 68.7091 0.719878 68.2191 1.12641 67.8111C1.53294 67.4031 2.02166 67.0865 2.56004 66.8823C3.1286 66.6619 3.73383 66.5518 4.3435 66.5577C4.81834 66.5534 5.29276 66.5873 5.76217 66.6592C6.17115 66.7235 6.5752 66.8162 6.97141 66.9363C7.49835 66.9363 8.0523 66.8687 8.64679 66.8079C9.1711 66.7528 9.69205 66.6693 10.2073 66.5577L9.96412 67.6868C9.66094 67.7883 9.34877 67.8608 9.03186 67.9031C8.68971 67.9549 8.34429 67.982 7.99826 67.9842C8.20451 68.3558 8.36554 68.7507 8.4779 69.1606C8.62161 69.7419 8.68749 70.3398 8.67381 70.9386C8.68519 71.6019 8.55867 72.2603 8.30226 72.8721C8.07223 73.3873 7.73613 73.848 7.31595 74.2242C6.88897 74.6051 6.38743 74.8929 5.84324 75.0693C5.2636 75.2609 4.65667 75.3568 4.04626 75.3532C3.83008 75.3532 3.57337 75.3532 3.26937 75.3532C3.0408 75.3482 2.81381 75.3141 2.59381 75.2518C2.49024 75.4692 2.40658 75.6954 2.34386 75.9279C2.26162 76.2045 2.21842 76.4912 2.2155 76.7797C2.2091 76.9297 2.25276 77.0776 2.33961 77.2C2.42645 77.3224 2.55154 77.4124 2.69515 77.4558C3.07203 77.5799 3.46717 77.6393 3.86386 77.6315H6.25532C6.87245 77.6216 7.48876 77.6806 8.09283 77.8073C8.52771 77.893 8.93693 78.0781 9.28857 78.3482C9.60047 78.5802 9.83576 78.9005 9.96412 79.2676C10.1349 79.7922 10.1955 80.3465 10.142 80.8956C10.0885 81.4447 9.92215 81.9769 9.65337 82.4586C9.29764 83.1012 8.81768 83.6665 8.24146 84.1217C7.59254 84.64 6.86198 85.0467 6.07968 85.3251C5.2145 85.6427 4.29896 85.8007 3.37746 85.7915ZM4.12732 74.231C4.75788 74.2609 5.38317 74.1033 5.9243 73.778C6.19099 73.5441 6.37174 73.2276 6.43772 72.8789C6.578 72.2582 6.63704 71.6219 6.61337 70.9859C6.61701 70.5546 6.56248 70.1248 6.45124 69.7082C6.35429 69.3405 6.1893 68.9942 5.96484 68.6873C5.76488 68.407 5.50384 68.1758 5.20146 68.0113C4.8922 67.8447 4.54606 67.7587 4.19488 67.7611C3.62702 67.7281 3.06291 67.8722 2.5803 68.1735C2.13444 68.498 1.90475 69.458 1.90475 71.0468C1.90323 71.4534 1.95779 71.8584 2.06688 72.2501C2.16254 72.6123 2.31534 72.957 2.5195 73.271C2.69718 73.5506 2.92645 73.7938 3.19506 73.9876C3.46964 74.1599 3.79001 74.2448 4.11381 74.231H4.12732Z" fill="#002D43"/>
<path id="Vector_2" d="M16.9695 66.5645C17.4571 66.5658 17.9419 66.6386 18.4084 66.7808C18.8762 66.9152 19.311 67.1454 19.6852 67.4568C20.1107 67.8345 20.4554 68.2945 20.6986 68.809C21.0278 69.4457 21.2558 70.13 21.3741 70.8371V70.9723C21.2607 71.1025 21.1259 71.2122 20.9755 71.2968C20.7619 71.4118 20.535 71.5003 20.3 71.5605C19.9684 71.6465 19.6324 71.7142 19.2934 71.7633C18.8186 71.8329 18.3406 71.878 17.8612 71.8985L14.2402 72.1487V72.8247C14.1467 73.8306 14.3839 74.8394 14.9158 75.698C15.1725 76.0058 15.4988 76.248 15.8677 76.4043C16.2367 76.5607 16.6375 76.6268 17.037 76.5971C17.4451 76.5979 17.8523 76.5594 18.253 76.4822C18.6719 76.4078 19.0705 76.3132 19.4555 76.205C19.8406 76.0968 20.1784 75.9887 20.4891 75.8738C20.7375 75.7851 20.981 75.6835 21.2187 75.5695L21.4957 76.205C21.1782 76.4146 20.8202 76.6309 20.4351 76.8811C20.0279 77.1175 19.6059 77.3275 19.1718 77.5098C18.7098 77.7048 18.2332 77.8631 17.7464 77.983C17.2475 78.1106 16.7345 78.1742 16.2196 78.1723C15.6322 78.1772 15.0487 78.0765 14.497 77.8749C13.976 77.6747 13.5121 77.3497 13.1458 76.9284C12.72 76.4327 12.4045 75.8519 12.2203 75.2247C11.9813 74.3923 11.8697 73.5284 11.8893 72.6625C11.8661 71.6944 11.9984 70.7289 12.2811 69.8028C12.4907 69.0983 12.8581 68.4509 13.3553 67.9098C13.8069 67.4613 14.3577 67.1255 14.9631 66.9295C15.6064 66.6949 16.2849 66.5714 16.9695 66.5645ZM15.1252 68.187C14.9829 68.2971 14.8674 68.4381 14.7874 68.5994C14.6752 68.8152 14.5846 69.0417 14.5172 69.2754C14.4396 69.5628 14.3765 69.8539 14.3281 70.1476C14.2818 70.4677 14.2593 70.7908 14.2605 71.1143L18.9286 70.9183C18.8718 70.5399 18.7929 70.1651 18.6922 69.796C18.6001 69.4434 18.4567 69.1063 18.2666 68.7954C18.0962 68.5083 17.8657 68.2615 17.591 68.0721C17.2927 67.8822 16.9446 67.7857 16.5912 67.7949C16.3301 67.7951 16.0698 67.8223 15.8143 67.876C15.5662 67.9326 15.3319 68.0383 15.1252 68.187Z" fill="#002D43"/>
<path id="Vector_3" d="M28.88 66.5645C29.3654 66.5652 29.8481 66.6381 30.3122 66.7808C30.7826 66.9136 31.22 67.1439 31.5957 67.4568C32.0171 67.8383 32.3611 68.2973 32.609 68.809C32.9383 69.4457 33.1662 70.13 33.2846 70.8371V70.9723C33.1686 71.1025 33.0316 71.2122 32.8793 71.2968C32.6662 71.413 32.4391 71.5016 32.2037 71.5605C31.8746 71.6472 31.5408 71.7149 31.2039 71.7633C30.7291 71.8325 30.2511 71.8777 29.7717 71.8985L26.144 72.1487V72.8247C26.0539 73.8303 26.2909 74.8381 26.8195 75.698C27.0776 76.0059 27.4052 76.2481 27.7752 76.4044C28.1452 76.5607 28.547 76.6268 28.9475 76.5971C29.3556 76.5979 29.7628 76.5594 30.1635 76.4822C30.5824 76.4078 30.981 76.3132 31.366 76.205C31.7511 76.0968 32.0889 75.9887 32.3996 75.8738C32.6479 75.7851 32.8915 75.6835 33.1292 75.5695L33.4062 76.205C33.0887 76.4146 32.7306 76.6309 32.3456 76.8811C31.9367 77.1188 31.5124 77.3289 31.0755 77.5098C30.6155 77.7038 30.1412 77.862 29.6569 77.983C29.158 78.1106 28.645 78.1742 28.1301 78.1723C27.5427 78.1772 26.9592 78.0765 26.4074 77.8749C25.8858 77.676 25.4216 77.3508 25.0563 76.9284C24.6327 76.4322 24.3195 75.8514 24.1376 75.2247C23.896 74.3927 23.7821 73.5288 23.7998 72.6625C23.7799 71.6946 23.9122 70.7296 24.1916 69.8028C24.4062 69.0989 24.7755 68.4521 25.2725 67.9098C25.7192 67.4617 26.2655 67.1258 26.8668 66.9295C27.5125 66.6949 28.1931 66.5715 28.88 66.5645ZM27.0222 68.187C26.884 68.2996 26.7712 68.4401 26.6912 68.5994C26.5761 68.8139 26.4855 69.0407 26.421 69.2754C26.3401 69.562 26.277 69.8533 26.2318 70.1476C26.1833 70.4675 26.1585 70.7907 26.1575 71.1143L30.8323 70.9183C30.7755 70.5399 30.6966 70.1651 30.5959 69.796C30.4979 69.4455 30.3548 69.1091 30.1703 68.7954C29.9994 68.5087 29.7691 68.262 29.4947 68.0721C29.1994 67.8812 28.8531 67.7845 28.5017 67.7949C28.2406 67.7947 27.9802 67.8219 27.7248 67.876C27.4722 67.9317 27.2333 68.0375 27.0222 68.187Z" fill="#002D43"/>
<path id="Vector_4" d="M38.5949 77.9965H36.3926V59.6551L38.5949 59.094V70.587C38.5949 70.7222 38.5949 70.8641 38.5949 71.0061C38.5949 71.1481 38.5949 71.2968 38.5949 71.4253C38.5949 71.5537 38.5949 71.6551 38.5949 71.7227C38.8921 71.3847 39.2096 71.0467 39.5542 70.6478L40.5675 69.5458L41.5133 68.5385C41.8105 68.2275 42.074 67.9706 42.2902 67.761C42.5881 67.4492 42.9188 67.1704 43.2765 66.9295C43.6574 66.7309 44.0836 66.6354 44.5128 66.6523C44.6749 66.6523 44.8573 66.6523 45.0735 66.6861C45.2347 66.6949 45.3928 66.7339 45.5396 66.801V67.4771H45.472C45.2446 67.472 45.0174 67.497 44.7965 67.5515C44.5929 67.6005 44.3956 67.6731 44.2088 67.7678C44.0041 67.8763 43.8097 68.003 43.6278 68.1464C43.4319 68.2951 43.2224 68.4777 42.9928 68.6872C42.8847 68.7819 42.7225 68.9374 42.5064 69.1605C42.2902 69.3836 42.0672 69.5999 41.8308 69.8365L40.9931 70.6884C41.1823 70.9791 41.3917 71.3644 41.6146 71.7701C41.8376 72.1757 42.0943 72.6557 42.3577 73.1222C42.6212 73.5886 42.9117 74.0754 43.2089 74.5486C43.4918 74.9955 43.808 75.4203 44.1547 75.8196C44.4561 76.1734 44.8038 76.4849 45.1883 76.7458C45.5124 76.9697 45.8957 77.092 46.2895 77.0974H46.4516V77.8343C46.1752 77.931 45.8901 78.0012 45.6004 78.0439C45.2879 78.0968 44.9716 78.124 44.6546 78.125C44.0915 78.1335 43.5426 77.9472 43.1008 77.5977C42.6196 77.2094 42.1964 76.754 41.8443 76.2455C41.4369 75.6423 41.0669 75.0147 40.7364 74.3661C40.3648 73.69 39.9663 72.9396 39.5272 72.2365L38.5949 73.1627V77.9965Z" fill="#002D43"/>
<path id="Vector_5" d="M55.4701 74.4811C55.483 74.9719 55.386 75.4592 55.1864 75.9076C54.9962 76.3016 54.7378 76.6587 54.423 76.9623C54.2428 77.1305 54.0534 77.2885 53.8555 77.4355C53.6452 77.5941 53.4188 77.7301 53.18 77.8411C52.8947 77.9589 52.5982 78.0473 52.295 78.1048C51.9346 78.1757 51.5679 78.2097 51.2006 78.2062C50.5173 78.2136 49.836 78.1317 49.1739 77.9628C48.5625 77.7984 47.9826 77.5333 47.458 77.1786L48.1336 75.6575C48.3678 75.8062 48.6245 75.955 48.9037 76.1037C49.1824 76.2559 49.4687 76.3936 49.7617 76.5161C50.0595 76.6395 50.3668 76.7389 50.6804 76.8135C51.0008 76.8929 51.3299 76.9315 51.66 76.9285C51.9794 76.9331 52.2985 76.9059 52.6125 76.8473C52.8547 76.8035 53.0848 76.7091 53.2881 76.5702C53.4689 76.4354 53.6148 76.2592 53.7137 76.0564C53.8375 75.7474 53.8928 75.4153 53.8758 75.0828C53.8795 74.9033 53.8411 74.7254 53.7636 74.5633C53.6862 74.4013 53.5719 74.2597 53.4299 74.1499C53.097 73.8872 52.7256 73.6774 52.3288 73.5279C51.8897 73.3589 51.41 73.1831 50.8898 73.0073C50.3899 72.8333 49.9098 72.6067 49.4577 72.3313C49.0242 72.0823 48.647 71.7462 48.3497 71.3442C48.042 70.8909 47.888 70.3505 47.9106 69.8028C47.8988 69.3822 48.0015 68.9662 48.2079 68.5995C48.4096 68.2583 48.6574 67.9467 48.9442 67.6733C49.7306 66.9358 50.7715 66.5313 51.8491 66.5442C52.3437 66.5472 52.8377 66.5788 53.3286 66.6389C53.842 66.702 54.3352 66.7696 54.8081 66.8417L54.477 68.4575L53.7609 68.2952L52.9503 68.1465L52.1531 68.0451C51.9288 68.0201 51.7033 68.0065 51.4776 68.0045C51.1384 67.9966 50.7993 68.0192 50.4642 68.0721C50.267 68.1104 50.079 68.1862 49.9103 68.2952C49.7848 68.3891 49.6906 68.5187 49.6401 68.6671C49.5733 68.8697 49.5436 69.0826 49.5522 69.2958C49.5507 69.4619 49.5899 69.6258 49.6665 69.7731C49.743 69.9205 49.8546 70.0468 49.9913 70.1409C50.3337 70.388 50.7089 70.586 51.106 70.729C51.5519 70.9048 52.0315 71.0806 52.5382 71.2631C53.0385 71.4416 53.5203 71.668 53.9771 71.9392C54.4102 72.1969 54.7888 72.5368 55.0918 72.9397C55.3813 73.399 55.5141 73.9399 55.4701 74.4811Z" fill="#002D43"/>
<path id="Vector_6" d="M62.0905 77.8344C62.0654 77.7764 62.0494 77.7148 62.0432 77.6519C62.0301 77.5645 62.0301 77.4756 62.0432 77.3882C62.0672 77.238 62.0988 77.0891 62.1378 76.942L62.2662 76.462L62.408 75.9279C62.5161 75.5358 62.6512 75.0355 62.8269 74.4338L63.6916 71.3443L63.4079 71.2699C61.9838 71.1258 60.5489 71.1258 59.1248 71.2699C58.2702 71.3655 57.4085 71.3814 56.551 71.3172L56.1119 71.2091C55.9132 71.178 55.7307 71.0812 55.5936 70.9342C55.4564 70.7871 55.3725 70.5982 55.3552 70.3978C55.2983 70.2174 55.2983 70.0238 55.3552 69.8434V69.7623C55.4978 69.3786 55.6813 69.0114 55.9024 68.6671C56.1929 68.1736 56.6388 67.4569 57.2536 66.5172L59.1248 63.5967L60.2192 61.8795C60.476 61.4738 60.6516 61.2034 60.7529 61.0074C60.8219 60.8863 60.8806 60.7596 60.9286 60.6288C61.0476 60.3552 61.2121 60.1037 61.415 59.8851C61.6098 59.649 61.8373 59.4418 62.0905 59.2699C62.2813 59.1843 62.4946 59.163 62.6985 59.2091C62.9121 59.2547 63.101 59.3783 63.2284 59.5558C63.3558 59.7333 63.4126 59.9519 63.3876 60.1691C63.394 60.198 63.394 60.228 63.3876 60.2569C63.2766 60.5489 63.1339 60.8278 62.962 61.0885C62.6738 61.5798 62.1671 62.3978 61.442 63.5426C60.5638 64.9262 59.7599 66.1792 59.0303 67.3014C58.3007 68.4237 57.8616 69.0998 57.7129 69.3296L57.6792 69.3702C57.6725 69.3899 57.6725 69.4113 57.6792 69.431H57.7264H57.9088C58.0169 69.431 58.1926 69.431 58.4358 69.431C58.679 69.431 59.0032 69.431 59.4018 69.431C60.7689 69.3377 62.1417 69.3716 63.5024 69.5324L64.178 69.6406L64.3536 69.1809C64.4009 69.0254 64.5496 68.5724 64.7792 67.8288C65.0089 67.0851 65.2792 66.2062 65.5696 65.1989C65.8601 64.1916 66.1506 63.2924 66.3736 62.6096C66.4842 62.2188 66.6242 61.8368 66.7924 61.4671C66.9545 61.1921 67.245 61.111 67.6639 61.2237C67.7719 61.2527 67.8722 61.3054 67.9575 61.3779C68.0427 61.4503 68.1109 61.5408 68.157 61.6429C68.2654 61.8986 68.3028 62.1789 68.2651 62.4541C68.2651 62.6029 68.157 62.9274 68.0287 63.4209L67.7922 64.2862C67.5288 65.28 67.245 66.3144 66.941 67.3217C66.637 68.3291 66.4141 69.0592 66.2655 69.4175L66.0493 69.9719L66.6168 70.1882C67.2923 70.4248 67.5558 70.7899 67.4207 71.2834C67.3965 71.3801 67.3512 71.4702 67.2882 71.5474C67.2251 71.6245 67.1458 71.6867 67.0559 71.7296C66.8655 71.8259 66.6454 71.8453 66.4411 71.7837L66.1439 71.7229C66.0427 71.7136 65.941 71.7136 65.8399 71.7229H65.5629L64.6712 74.3392C64.428 75.0896 64.205 75.7589 63.9956 76.3674C63.7862 76.9758 63.6781 77.3544 63.6308 77.5234C63.5826 77.6909 63.5146 77.8521 63.4281 78.0034C63.3528 78.1006 63.2523 78.1754 63.1376 78.2198C62.9501 78.3156 62.7347 78.342 62.5296 78.2941C62.4268 78.2552 62.334 78.1937 62.258 78.1141C62.182 78.0346 62.1248 77.939 62.0905 77.8344Z" fill="#002D43"/>
<path id="Vector_7" d="M69.8184 78.0642V59.7228L72.0274 59.1685V78.098L69.8184 78.0642Z" fill="#002D43"/>
<path id="Vector_8" d="M80.3914 66.6388C80.879 66.6401 81.3638 66.713 81.8303 66.8551C82.3007 66.9881 82.738 67.2184 83.1139 67.5312C83.5351 67.9111 83.8772 68.3706 84.1204 68.8833C84.4497 69.52 84.6776 70.2043 84.796 70.9114V71.0399C84.683 71.1722 84.5482 71.2843 84.3974 71.3712C84.1833 71.4836 83.9565 71.5699 83.7219 71.6281C83.3913 71.7199 83.055 71.7899 82.7153 71.8376C82.3167 71.8985 81.8438 71.9391 81.2899 71.9729L77.6621 72.2162V72.8923C77.5696 73.9002 77.8067 74.9109 78.3377 75.7723C78.5944 76.0801 78.9207 76.3223 79.2896 76.4787C79.6585 76.635 80.0594 76.7011 80.4589 76.6715C80.8668 76.6688 81.2737 76.6304 81.6749 76.5565C82.0938 76.4822 82.4923 76.3875 82.8774 76.2793C83.2625 76.1712 83.607 76.0562 83.911 75.9413C84.159 75.8544 84.4025 75.7552 84.6406 75.6438L84.9176 76.2793C84.6001 76.4889 84.242 76.7053 83.857 76.9554C83.4483 77.1891 83.0265 77.3991 82.5937 77.5841C82.1306 77.7761 81.6542 77.9343 81.1683 78.0574C80.6689 78.1822 80.1562 78.2458 79.6415 78.2467C79.0541 78.2515 78.4706 78.1508 77.9188 77.9492C77.3992 77.7466 76.9358 77.422 76.5677 77.0027C76.1419 76.5045 75.8264 75.9215 75.6422 75.2923C75.4031 74.4622 75.2915 73.6005 75.3112 72.7368C75.288 71.7687 75.4203 70.8032 75.703 69.8771C75.9142 69.1713 76.2813 68.522 76.7771 67.9774C77.2277 67.5054 77.7832 67.1463 78.3985 66.9295C79.0418 66.7216 79.7155 66.6234 80.3914 66.6388ZM78.5606 68.2816C78.4183 68.3945 78.3029 68.5377 78.2228 68.7007C78.1111 68.9168 78.0206 69.1432 77.9526 69.3768C77.8743 69.664 77.8112 69.9551 77.7635 70.2489C77.717 70.569 77.6944 70.8922 77.6959 71.2157L82.364 71.0196C82.3072 70.6412 82.2283 70.2665 82.1275 69.8974C82.0354 69.5427 81.892 69.2033 81.7019 68.89C81.5315 68.6049 81.301 68.3603 81.0264 68.1734C80.7286 67.9824 80.3801 67.8858 80.0266 67.8962C79.7677 67.8961 79.5096 67.9233 79.2564 67.9774C79.0074 68.034 78.7713 68.1372 78.5606 68.2816Z" fill="#002D43"/>
<path id="Vector_9" d="M96.6042 76.9081C96.9981 76.8915 97.3885 76.8256 97.7661 76.712V77.3881C97.4148 77.5706 97.0365 77.7531 96.6244 77.9222C96.2098 78.0976 95.764 78.1873 95.3139 78.1858C95.0826 78.1933 94.8524 78.1519 94.6383 78.0641C94.4623 77.9895 94.3054 77.8763 94.1789 77.7329C94.0621 77.5981 93.9644 77.448 93.8884 77.2867C93.8103 77.1275 93.7448 76.9625 93.6925 76.7931L92.8751 77.334C92.6119 77.509 92.3364 77.6649 92.0509 77.8005C91.7524 77.937 91.4428 78.0479 91.1254 78.1317C90.7669 78.2168 90.3994 78.2576 90.031 78.2534C89.6382 78.2745 89.2451 78.2179 88.8741 78.0868C88.5032 77.9557 88.1617 77.7528 87.8692 77.4895C87.5863 77.1826 87.3696 76.8208 87.2324 76.4265C87.0953 76.0323 87.0407 75.614 87.0721 75.1976C87.0616 74.7088 87.1441 74.2224 87.3153 73.7644C87.4668 73.358 87.7289 73.002 88.0719 72.7368C88.4715 72.4318 88.9325 72.2173 89.423 72.1081C90.0873 71.9504 90.767 71.8665 91.4497 71.8579L93.4763 71.7971V69.8162C93.5171 69.3357 93.3854 68.8563 93.1048 68.4641C92.9393 68.3051 92.7412 68.184 92.5242 68.1092C92.3072 68.0345 92.0765 68.008 91.8483 68.0314C91.3227 68.047 90.8009 68.1265 90.2945 68.2681C89.6808 68.4274 89.0801 68.633 88.4975 68.8833L88.1057 67.8354L89.2068 67.4027C89.5919 67.254 89.9905 67.1255 90.3891 67.0106C90.7932 66.8944 91.2037 66.8018 91.6186 66.7334C92.0221 66.6609 92.4313 66.6247 92.8413 66.6253C93.2471 66.6192 93.6518 66.6692 94.0438 66.774C94.3806 66.8624 94.6897 67.0344 94.9423 67.2743C95.2008 67.5323 95.3912 67.8505 95.4963 68.2005C95.6306 68.6661 95.6943 69.1492 95.6854 69.6337V74.9813C95.6787 76.2658 95.9827 76.9081 96.6042 76.9081ZM93.5507 76.0698C93.5507 76.0157 93.5507 75.7047 93.5169 75.13C93.4831 74.5554 93.5169 73.7779 93.5169 72.703C92.6103 72.6752 91.7035 72.7523 90.8147 72.9329C90.4095 72.9943 90.025 73.152 89.6932 73.3926C89.544 73.5632 89.4436 73.7712 89.4028 73.9943C89.3391 74.2965 89.3097 74.6049 89.3149 74.9137C89.2879 75.4093 89.3978 75.9029 89.6324 76.3402C89.7501 76.5107 89.911 76.6469 90.0985 76.7348C90.286 76.8227 90.4936 76.8592 90.6998 76.8405C91.1966 76.8453 91.6919 76.7839 92.1725 76.6579C92.6504 76.5202 93.1089 76.3226 93.5372 76.0698H93.5507Z" fill="#002D43"/>
<path id="Vector_10" d="M105.671 68.6534L104.826 68.5791C104.509 68.5791 104.211 68.5385 103.928 68.5385C103.748 68.535 103.568 68.5555 103.394 68.5994C103.244 68.6475 103.101 68.7157 102.968 68.8022C102.826 68.9007 102.693 69.0116 102.57 69.1334L102.111 69.5661V78.0641H99.9082V66.8822H101.752L102.063 68.6332C102.178 68.4912 102.306 68.3357 102.435 68.1667C102.563 67.9977 102.698 67.8354 102.833 67.6867C102.969 67.5363 103.113 67.394 103.266 67.2608C103.414 67.1339 103.58 67.0291 103.759 66.9498C104.075 66.8144 104.41 66.73 104.752 66.6996C105.16 66.6573 105.571 66.6369 105.981 66.6388L105.671 68.6534Z" fill="#002D43"/>
<path id="Vector_11" d="M116.013 78.0642V70.3098C116.014 70.0491 115.992 69.7889 115.946 69.5323C115.908 69.2895 115.815 69.0583 115.676 68.8563C115.531 68.6427 115.333 68.4703 115.101 68.356C114.783 68.2125 114.436 68.1453 114.088 68.1599C113.792 68.1622 113.498 68.1962 113.21 68.2613C112.892 68.3242 112.579 68.4055 112.271 68.5047C111.959 68.5984 111.654 68.7136 111.359 68.8495C111.062 68.978 110.798 69.1064 110.555 69.2416V78.098H108.353V66.8822H110.197L110.508 68.1937L111.379 67.707C111.717 67.5312 112.055 67.3622 112.453 67.2067C112.839 67.0423 113.236 66.9067 113.642 66.8011C114.052 66.694 114.475 66.6395 114.899 66.6388C115.357 66.6308 115.814 66.6994 116.25 66.8416C116.639 66.9687 116.994 67.1812 117.29 67.4636C117.588 67.7546 117.819 68.1077 117.966 68.498C118.138 68.9604 118.22 69.4514 118.209 69.9447V78.0574L116.013 78.0642Z" fill="#002D43"/>
<path id="Vector_12" d="M123.167 61.1494L124.673 62.6367L123.167 64.1241L121.681 62.6367L123.167 61.1494ZM122.086 78.0508V66.8824H124.302V78.0643L122.086 78.0508Z" fill="#002D43"/>
<path id="Vector_13" d="M135.942 78.0643V70.31C135.943 70.0493 135.92 69.7891 135.874 69.5325C135.834 69.2905 135.741 69.06 135.604 68.8564C135.458 68.6411 135.258 68.4684 135.023 68.3562C134.708 68.2132 134.363 68.146 134.017 68.1601C133.721 68.1623 133.427 68.1963 133.138 68.2615C132.821 68.3244 132.508 68.4056 132.199 68.5049C131.887 68.5974 131.583 68.7127 131.287 68.8497C130.99 68.9781 130.727 69.1066 130.484 69.2418V78.0981H128.281V66.8824H130.126L130.436 68.1939L131.308 67.7071C131.657 67.5218 132.015 67.3548 132.382 67.2069C132.768 67.0424 133.165 66.9069 133.571 66.8012C133.981 66.6933 134.403 66.6388 134.827 66.639C135.286 66.6315 135.742 66.7 136.178 66.8418C136.567 66.9689 136.923 67.1814 137.219 67.4638C137.515 67.7565 137.745 68.1092 137.894 68.4981C138.067 68.9605 138.149 69.4516 138.138 69.9449V78.0576L135.942 78.0643Z" fill="#002D43"/>
<path id="Vector_14" d="M144.846 85.8591C144.268 85.8698 143.691 85.8039 143.13 85.6631C142.721 85.5595 142.336 85.3782 141.995 85.129C141.722 84.9285 141.506 84.6606 141.367 84.3515C141.234 84.0588 141.167 83.7402 141.171 83.4185C141.167 83.1482 141.206 82.879 141.286 82.6208C141.359 82.3707 141.456 82.1284 141.577 81.8974C141.696 81.6614 141.833 81.4353 141.989 81.2214C142.135 81.0187 142.293 80.8246 142.462 80.64L143.015 80.836C142.903 81.1116 142.814 81.3967 142.752 81.6878C142.696 81.9683 142.669 82.2537 142.671 82.5397C142.661 82.8113 142.718 83.0812 142.835 83.3262C142.953 83.5712 143.128 83.7838 143.346 83.9459C143.881 84.3154 144.522 84.4984 145.17 84.4664C145.852 84.4703 146.532 84.3977 147.197 84.2501C147.767 84.1305 148.309 83.9009 148.791 83.574C149.086 83.3396 149.306 83.025 149.426 82.6681C149.571 82.2555 149.642 81.8207 149.636 81.3836C149.654 81.1495 149.615 80.9146 149.522 80.6991C149.429 80.4835 149.285 80.2938 149.102 80.1464C148.545 79.8342 147.908 79.6953 147.271 79.7476H145.488C144.528 79.7999 143.57 79.6239 142.691 79.2338C142.406 79.0733 142.172 78.8349 142.016 78.5465C141.861 78.2581 141.79 77.9314 141.813 77.6045C141.815 77.3719 141.863 77.1421 141.955 76.9284C142.045 76.6887 142.165 76.4615 142.313 76.2524C142.463 76.0361 142.626 75.8284 142.799 75.6304C142.982 75.4276 143.157 75.245 143.333 75.0828C142.732 74.7219 142.233 74.2149 141.881 73.609C141.471 72.8774 141.272 72.0467 141.306 71.209C141.298 70.5534 141.412 69.9021 141.644 69.289C141.849 68.7425 142.169 68.2467 142.583 67.8354C142.989 67.4355 143.471 67.1227 144.002 66.916C144.572 66.7013 145.176 66.5935 145.785 66.5983C146.26 66.5939 146.734 66.6278 147.204 66.6997C147.614 66.7608 148.018 66.8535 148.413 66.9769C148.933 66.9769 149.494 66.9093 150.089 66.8417C150.613 66.7918 151.134 66.7106 151.649 66.5983L151.399 67.7273C151.098 67.8256 150.788 67.8958 150.474 67.9369C150.131 67.9887 149.786 68.0158 149.44 68.018C149.646 68.3915 149.804 68.7888 149.913 69.2011C150.061 69.7817 150.127 70.3802 150.109 70.9791C150.123 71.6398 149.999 72.2962 149.744 72.9059C149.52 73.4362 149.184 73.9114 148.758 74.2986C148.329 74.6759 147.828 74.9613 147.285 75.1369C146.707 75.334 146.099 75.4323 145.488 75.4276C145.272 75.4276 145.015 75.4276 144.711 75.4276C144.482 75.4245 144.254 75.388 144.036 75.3194C143.933 75.537 143.849 75.7632 143.786 75.9955C143.7 76.2713 143.657 76.5585 143.657 76.8473C143.651 76.9973 143.695 77.1451 143.781 77.2675C143.868 77.3899 143.993 77.4799 144.137 77.5233C144.512 77.6538 144.908 77.7156 145.306 77.7059H147.711C148.327 77.694 148.944 77.7507 149.548 77.8749C149.982 77.9636 150.391 78.1484 150.744 78.4157C151.053 78.653 151.288 78.9746 151.419 79.3419C151.561 79.7783 151.627 80.2355 151.615 80.694C151.606 81.3467 151.432 81.9864 151.109 82.5532C150.751 83.1964 150.271 83.7636 149.697 84.2231C149.049 84.7362 148.324 85.1424 147.548 85.4264C146.681 85.7319 145.766 85.8785 144.846 85.8591ZM145.596 74.2986C146.228 74.329 146.854 74.1688 147.393 73.8388C147.661 73.6056 147.842 73.2887 147.906 72.9397C148.053 72.3153 148.117 71.6743 148.096 71.0332C148.099 70.6019 148.045 70.1721 147.934 69.7555C147.834 69.3888 147.669 69.043 147.447 68.7346C147.245 68.4565 146.984 68.2259 146.684 68.0585C146.374 67.8944 146.028 67.8107 145.677 67.8152C145.109 67.779 144.544 67.9233 144.063 68.2276C143.61 68.5521 143.387 69.5121 143.387 71.1008C143.388 71.5078 143.445 71.9126 143.556 72.3042C143.652 72.6664 143.804 73.011 144.009 73.325C144.185 73.604 144.414 73.8453 144.684 74.0349C144.952 74.2182 145.271 74.3128 145.596 74.3053V74.2986Z" fill="#002D43"/>
<path id="Vector_15" d="M18.3012 89.9154C18.4935 89.9063 18.6839 89.8745 18.8687 89.8208V90.1588C18.687 90.2573 18.4998 90.3454 18.308 90.4225C18.0948 90.5137 17.8643 90.5576 17.6324 90.5509C17.5212 90.5543 17.4106 90.5335 17.3082 90.4901C17.2241 90.4539 17.1483 90.401 17.0852 90.3346C17.0256 90.2688 16.9776 90.1934 16.9434 90.1115C16.9039 90.0351 16.8701 89.9561 16.842 89.8748L16.4435 90.1385C16.3168 90.2234 16.1835 90.298 16.0449 90.3616C15.8998 90.4308 15.7482 90.4851 15.5923 90.5239C15.4175 90.566 15.2383 90.5864 15.0586 90.5847C14.866 90.596 14.6731 90.5689 14.4911 90.5051C14.309 90.4412 14.1414 90.3419 13.998 90.2129C13.8606 90.062 13.7556 89.8847 13.6893 89.6916C13.6231 89.4986 13.5971 89.2941 13.6129 89.0906C13.6115 88.8603 13.6503 88.6315 13.7277 88.4146C13.8048 88.2157 13.933 88.0408 14.0993 87.9075C14.2997 87.7581 14.5302 87.6543 14.7748 87.6033C15.103 87.5282 15.4381 87.4874 15.7747 87.4816L16.7542 87.4478V86.481C16.7774 86.241 16.7126 86.0007 16.5718 85.805C16.4911 85.7265 16.3944 85.6665 16.2882 85.6292C16.1821 85.5918 16.0691 85.578 15.9571 85.5886C15.7006 85.5961 15.4463 85.637 15.2004 85.7103C14.9003 85.7861 14.6066 85.8855 14.3222 86.0078L14.1263 85.494L14.6668 85.2844C14.857 85.2112 15.0509 85.148 15.2477 85.0951C15.4426 85.0365 15.6412 84.9913 15.8422 84.9599C16.0404 84.9221 16.2418 84.904 16.4435 84.9058C16.6415 84.9025 16.8391 84.9253 17.0312 84.9734C17.193 85.0229 17.3426 85.1059 17.4703 85.2168C17.5956 85.3464 17.6882 85.504 17.7405 85.6765C17.8058 85.8959 17.8377 86.1238 17.8351 86.3526V88.9622C17.8554 89.6044 18.004 89.9154 18.3012 89.9154ZM16.8083 89.503C16.8083 89.503 16.8083 89.3272 16.8083 89.0501C16.8083 88.7729 16.8083 88.374 16.8083 87.8602C16.3662 87.848 15.9242 87.8865 15.4909 87.9751C15.2935 88.0052 15.1059 88.0816 14.9437 88.1982C14.8702 88.28 14.8211 88.3807 14.8019 88.4889C14.7703 88.6378 14.7544 88.7897 14.7546 88.9419C14.7467 89.1769 14.8003 89.4099 14.91 89.6179C14.9692 89.7007 15.0489 89.7666 15.1413 89.8093C15.2337 89.8519 15.3355 89.8699 15.4369 89.8613C15.6784 89.8642 15.9193 89.8346 16.153 89.7734C16.3807 89.7077 16.6005 89.617 16.8083 89.503Z" fill="#002D43"/>
<path id="Vector_16" d="M24.4819 91.1055C24.4862 91.4782 24.4477 91.8503 24.367 92.2142C24.2983 92.5085 24.1916 92.7926 24.0495 93.0593C23.9179 93.3051 23.7544 93.5325 23.5631 93.7353C23.3743 93.9387 23.1736 94.1306 22.9619 94.31L22.6309 93.972C22.9092 93.6695 23.1128 93.306 23.2253 92.9105C23.3592 92.3896 23.4206 91.8527 23.4077 91.3151V85.048H24.4819V91.1055ZM23.9347 82.2153L24.6643 82.9387L23.9347 83.6689L23.2051 82.9387L23.9347 82.2153Z" fill="#002D43"/>
<path id="Vector_17" d="M29.2448 90.5915C28.8848 90.6156 28.5237 90.5637 28.185 90.439C27.8464 90.3144 27.5377 90.1199 27.2789 89.8682C26.787 89.2804 26.5446 88.5233 26.6034 87.7589C26.5981 87.3564 26.6528 86.9554 26.7655 86.569C26.8682 86.2365 27.041 85.9299 27.2722 85.6699C27.5034 85.4209 27.7873 85.2269 28.1031 85.102C28.8449 84.8449 29.6515 84.8449 30.3933 85.102C30.7104 85.2146 30.9955 85.4025 31.2242 85.6496C31.462 85.903 31.6418 86.2052 31.7511 86.5352C31.8706 86.9249 31.9276 87.3311 31.92 87.7386C31.927 88.1417 31.87 88.5433 31.7511 88.9284C31.6491 89.2598 31.4788 89.5661 31.2512 89.8276C31.0238 90.0809 30.7388 90.2756 30.4203 90.3955C30.0446 90.5355 29.6456 90.602 29.2448 90.5915ZM27.7383 87.7453C27.7337 88.0896 27.7608 88.4336 27.8194 88.773C27.8615 89.0136 27.951 89.2434 28.0829 89.449C28.1929 89.6248 28.3528 89.7637 28.5422 89.8479C28.7557 89.9385 28.986 89.9823 29.2178 89.9763C29.4087 89.98 29.5994 89.9595 29.7853 89.9155C29.9604 89.869 30.1239 89.7861 30.2649 89.6721C30.4769 89.4896 30.612 89.2336 30.6432 88.9555C30.7095 88.5556 30.7412 88.1507 30.7378 87.7453C30.7791 87.153 30.6551 86.5609 30.3797 86.0349C30.2554 85.8543 30.0856 85.7097 29.8875 85.6159C29.6894 85.5221 29.47 85.4824 29.2516 85.5008C29.0607 85.4988 28.8702 85.5193 28.6841 85.5617C28.5111 85.6037 28.3481 85.6795 28.2045 85.7848C28.1079 85.8623 28.0314 85.9621 27.9815 86.0755C27.92 86.2246 27.8703 86.3783 27.8329 86.5352C27.7931 86.7225 27.766 86.9122 27.7518 87.1031C27.7428 87.3194 27.7383 87.5313 27.7383 87.7386V87.7453Z" fill="#002D43"/>
<path id="Vector_18" d="M35.0207 85.0209V88.8204C35.0106 88.9464 35.0106 89.073 35.0207 89.199C35.0412 89.3199 35.0873 89.4352 35.1558 89.537C35.231 89.6383 35.328 89.7215 35.4395 89.7804C35.5944 89.8495 35.7632 89.8819 35.9327 89.875C36.0757 89.8719 36.2181 89.8561 36.3583 89.8277C36.5136 89.7939 36.6623 89.7533 36.8176 89.706C36.9703 89.6608 37.1193 89.6043 37.2635 89.537C37.4054 89.4761 37.5405 89.4085 37.6553 89.3477V85.0209H38.7362V90.4835H37.831L37.6688 89.8074L37.2432 90.044C37.0811 90.1319 36.9055 90.213 36.7163 90.2942C36.5252 90.3714 36.3288 90.4347 36.1286 90.4835C35.9281 90.5374 35.7214 90.5647 35.5138 90.5646C35.2851 90.5689 35.0571 90.537 34.8383 90.4699C34.649 90.4072 34.476 90.3033 34.3316 90.1657C34.1858 90.0228 34.0728 89.8497 34.0006 89.6587C33.9181 89.4429 33.8769 89.2136 33.879 88.9826V85.0142L35.0207 85.0209Z" fill="#002D43"/>
<path id="Vector_19" d="M44.0328 85.8591H43.614H43.1749C43.0899 85.8441 43.003 85.8441 42.9181 85.8591C42.8443 85.8808 42.7738 85.9127 42.7087 85.9538C42.6402 86.0038 42.5747 86.058 42.5128 86.116L42.2899 86.3256V90.4833H41.209V85.0208H42.1075L42.2629 85.8726C42.3285 85.8 42.3895 85.7232 42.4453 85.6428C42.5128 85.5616 42.5736 85.4805 42.6412 85.4062C42.7059 85.3335 42.7759 85.2657 42.8506 85.2033C42.9231 85.1392 43.0051 85.0867 43.0938 85.0478C43.2491 84.9836 43.413 84.9426 43.5802 84.9262C43.7782 84.9152 43.9767 84.9152 44.1747 84.9262L44.0328 85.8591Z" fill="#002D43"/>
<path id="Vector_20" d="M49.5922 90.4833V86.6771C49.6022 86.5511 49.6022 86.4245 49.5922 86.2985C49.5728 86.1793 49.5266 86.066 49.4571 85.9673C49.389 85.8595 49.2902 85.7747 49.1733 85.7239C49.0201 85.6491 48.8505 85.6142 48.6802 85.6225C48.5372 85.6256 48.3948 85.6414 48.2546 85.6698L47.7952 85.7915C47.6426 85.8366 47.4935 85.8931 47.3493 85.9605C47.2075 86.0213 47.0724 86.0889 46.9575 86.1498V90.4833H45.8496V85.0208H46.7481L46.8967 85.6563L47.3223 85.4197C47.4912 85.3291 47.6648 85.2479 47.8425 85.1763C48.0334 85.0968 48.2298 85.0313 48.4302 84.9802C48.6307 84.9263 48.8374 84.899 49.045 84.8991C49.2744 84.8932 49.503 84.9275 49.7205 85.0005C49.9102 85.0589 50.0837 85.1607 50.2272 85.298C50.3744 85.4398 50.4876 85.6131 50.5582 85.805C50.6407 86.0208 50.6819 86.2501 50.6798 86.4811V90.4563L49.5922 90.4833Z" fill="#002D43"/>
<path id="Vector_21" d="M55.2131 84.8993C55.4419 84.9018 55.6692 84.9359 55.8887 85.0007C56.1193 85.0704 56.3316 85.1905 56.5102 85.3522C56.7181 85.5438 56.8878 85.7733 57.0101 86.0283C57.1663 86.3455 57.2712 86.6855 57.3209 87.0356V87.0965C57.2679 87.1639 57.2011 87.2192 57.1249 87.2587C57.0249 87.313 56.9181 87.3539 56.8074 87.3804C56.6459 87.4267 56.481 87.4606 56.3143 87.4818C56.0906 87.5172 55.865 87.5398 55.6387 87.5494L53.862 87.6711V88.0159C53.8225 88.5095 53.9433 89.0027 54.2065 89.4221C54.333 89.5723 54.4932 89.6905 54.674 89.7669C54.8548 89.8432 55.0511 89.8757 55.2469 89.8615C55.4466 89.8604 55.6456 89.84 55.8414 89.8007C56.0397 89.7668 56.2359 89.7216 56.4291 89.6655L56.9358 89.5032C57.0567 89.4631 57.1742 89.4134 57.2871 89.3545L57.4222 89.6655C57.2668 89.7669 57.0979 89.8751 56.902 89.99C56.7033 90.1035 56.498 90.205 56.2873 90.2942C56.0683 90.388 55.8424 90.4648 55.6117 90.5241C55.3688 90.5859 55.1192 90.6177 54.8686 90.6187C54.5809 90.6217 54.295 90.5737 54.0241 90.4767C53.7654 90.3766 53.534 90.2168 53.3486 90.0103C53.1434 89.7663 52.9895 89.4835 52.896 89.1787C52.7619 88.7614 52.6935 88.3258 52.6933 87.8874C52.6837 87.4135 52.7498 86.9411 52.8892 86.488C52.9894 86.142 53.17 85.8247 53.4161 85.5618C53.6337 85.3316 53.9021 85.1557 54.1998 85.048C54.5271 84.9428 54.8695 84.8926 55.2131 84.8993ZM54.3079 85.6903C54.2412 85.7467 54.1862 85.8156 54.1457 85.8931C54.0904 86.0006 54.0473 86.114 54.0174 86.2311C53.9766 86.3709 53.945 86.5131 53.9228 86.657C53.9094 86.8122 53.9094 86.9683 53.9228 87.1235L56.2062 87.0289C56.1786 86.8437 56.138 86.6607 56.0846 86.4812C56.0419 86.3097 55.9736 86.1456 55.8819 85.9945C55.7989 85.8542 55.6859 85.7342 55.5509 85.6429C55.4069 85.5481 55.2368 85.5008 55.0645 85.5077C54.9373 85.5075 54.8105 85.5211 54.6862 85.5483C54.5506 85.5651 54.421 85.6137 54.3079 85.6903Z" fill="#002D43"/>
<path id="Vector_22" d="M62.7724 85.8591C62.7788 85.7804 62.7788 85.7013 62.7724 85.6225C62.7724 85.5414 62.7724 85.467 62.7724 85.3926C62.7724 85.3183 62.7724 85.2574 62.7251 85.2034C62.7155 85.1572 62.7019 85.112 62.6846 85.0681L63.6101 84.8518C63.6601 84.9632 63.692 85.0819 63.7047 85.2034C63.715 85.3474 63.715 85.492 63.7047 85.636C63.6998 86.0013 63.6499 86.3646 63.5561 86.7177C63.4534 87.1407 63.3225 87.5563 63.1643 87.9617C62.9954 88.3876 62.8062 88.8135 62.59 89.2462C62.3739 89.6788 62.1442 90.0845 61.9145 90.4631L61.3943 91.2811C61.2187 91.565 61.0295 91.8422 60.8268 92.1194C60.6242 92.3966 60.4283 92.6603 60.2188 92.9104C60.0134 93.1547 59.7874 93.3809 59.5433 93.5864C59.3394 93.7689 59.1122 93.9235 58.8677 94.0462C58.6366 94.152 58.3856 94.2073 58.1314 94.2084C57.9969 94.2126 57.8626 94.1966 57.7328 94.1611C57.626 94.1355 57.5251 94.0896 57.4355 94.0259V93.6811H57.5977H57.7666C57.9528 93.6737 58.135 93.6253 58.3003 93.5391C58.5157 93.4257 58.7213 93.2946 58.915 93.147C59.1505 92.9727 59.376 92.7854 59.5906 92.5859C59.8067 92.3763 60.0162 92.1532 60.2121 91.9098C60.4083 91.6942 60.5932 91.4685 60.766 91.2338C60.9243 91.0343 61.0688 90.8243 61.1984 90.605C60.9957 90.0034 60.7863 89.449 60.5836 88.9217C60.381 88.3943 60.1918 87.9346 60.0162 87.5087C59.8405 87.0828 59.6784 86.7245 59.5298 86.4203C59.3812 86.116 59.2595 85.8794 59.1582 85.7442C59.0901 85.6257 58.9892 85.5295 58.8677 85.467C58.7679 85.4129 58.6569 85.3828 58.5435 85.3791H58.4556V85.0546C58.5778 85.0204 58.7019 84.9934 58.8272 84.9735C58.9828 84.9414 59.1412 84.9255 59.3001 84.9262C59.4369 84.9271 59.5731 84.9452 59.7054 84.9803C59.8294 85.0096 59.9393 85.0813 60.0162 85.1831C60.1752 85.3907 60.3068 85.6179 60.408 85.8591C60.5566 86.1566 60.7052 86.5352 60.8606 86.9003C61.016 87.2653 61.1781 87.725 61.347 88.1848C61.5159 88.6445 61.6713 89.111 61.8199 89.5707C61.9984 89.2461 62.1541 88.9095 62.286 88.5634C62.4107 88.2542 62.5101 87.9354 62.5833 87.6101C62.6541 87.3143 62.7038 87.0138 62.7319 86.711C62.7589 86.436 62.7724 86.1521 62.7724 85.8591Z" fill="#002D43"/>
<path id="Vector_23" d="M68.7173 85.609L68.1025 85.5549V85.2439L69.5482 84.0608H69.7644V85.0208H71.2574L71.1898 85.5076L70.744 85.5481H70.2846C70.1157 85.5481 69.9468 85.5481 69.7779 85.5481V89.1042C69.7705 89.2731 69.8078 89.441 69.886 89.5909C69.9536 89.7261 70.1089 89.787 70.3521 89.787H70.8115H71.3047V90.1588C71.2068 90.2075 71.1051 90.2482 71.0007 90.2805L70.5886 90.4022L70.1427 90.5036C70.0068 90.5292 69.8689 90.5428 69.7306 90.5442C69.6074 90.5451 69.4847 90.5292 69.3658 90.4969C69.2443 90.4694 69.131 90.4138 69.0348 90.3346C68.9297 90.2414 68.8466 90.1259 68.7916 89.9966C68.7239 89.8151 68.6918 89.6223 68.697 89.4287L68.7173 85.609Z" fill="#002D43"/>
<path id="Vector_24" d="M75.2362 90.5915C74.8752 90.6149 74.5133 90.5626 74.1736 90.438C73.834 90.3135 73.524 90.1194 73.2636 89.8681C72.7742 89.279 72.532 88.5229 72.588 87.7589C72.5849 87.356 72.6419 86.955 72.7569 86.569C72.8596 86.2365 73.0324 85.9299 73.2636 85.6698C73.4947 85.4209 73.7787 85.2269 74.0945 85.102C74.4616 84.965 74.8512 84.8985 75.2429 84.9059C75.6319 84.8982 76.0189 84.9623 76.3846 85.0952C76.699 85.2095 76.9815 85.3972 77.2088 85.6428C77.4325 85.9012 77.5963 86.206 77.6884 86.5352C77.8048 86.9256 77.8617 87.3312 77.8573 87.7386C77.8611 88.1414 77.8042 88.5426 77.6884 88.9284C77.5869 89.2615 77.414 89.5683 77.1818 89.8276C76.9556 90.0792 76.6732 90.2737 76.3576 90.3955C75.9987 90.5282 75.6188 90.5946 75.2362 90.5915ZM73.7229 87.7453C73.7202 88.0899 73.7496 88.4339 73.8108 88.7729C73.8528 89.0136 73.9424 89.2434 74.0742 89.449C74.1842 89.6248 74.3442 89.7637 74.5336 89.8479C74.747 89.9385 74.9774 89.9823 75.2092 89.9763C75.4001 89.9799 75.5908 89.9595 75.7766 89.9155C75.9512 89.8673 76.1143 89.7846 76.2563 89.6721C76.4682 89.4896 76.6034 89.2336 76.6346 88.9555C76.7009 88.5556 76.7325 88.1507 76.7292 87.7453C76.7705 87.153 76.6465 86.5609 76.3711 86.0349C76.2458 85.8553 76.0759 85.7115 75.878 85.6178C75.6801 85.5241 75.4612 85.4838 75.2429 85.5008C75.052 85.4984 74.8615 85.5189 74.6755 85.5617C74.5025 85.6037 74.3395 85.6795 74.1958 85.7848C74.0992 85.8623 74.0228 85.962 73.9729 86.0755C73.9113 86.2246 73.8616 86.3783 73.8243 86.5352C73.7812 86.7219 73.7541 86.9118 73.7432 87.1031C73.7364 87.3194 73.7229 87.529 73.7229 87.7386V87.7453Z" fill="#002D43"/>
<path id="Vector_25" d="M85.1203 84.8992C85.3491 84.9013 85.5765 84.9354 85.7958 85.0006C86.0278 85.0718 86.242 85.1916 86.4241 85.3521C86.6299 85.5441 86.7972 85.7735 86.9173 86.0282C87.0729 86.3462 87.1799 86.6857 87.2348 87.0355V87.0964C87.1803 87.1624 87.1138 87.2174 87.0388 87.2586C86.9369 87.314 86.8278 87.3549 86.7146 87.3803C86.553 87.4266 86.3882 87.4605 86.2214 87.4817C85.9978 87.5175 85.7722 87.54 85.5459 87.5493L83.7759 87.671V88.0158C83.7382 88.5084 83.8564 89.0004 84.1137 89.422C84.2408 89.5714 84.4011 89.6889 84.5818 89.7652C84.7624 89.8416 84.9584 89.8745 85.1541 89.8614C85.3537 89.8606 85.5528 89.8402 85.7485 89.8006C85.9468 89.7667 86.1431 89.7215 86.3363 89.6654L86.8429 89.5031C86.9638 89.463 87.0813 89.4133 87.1942 89.3544L87.3361 89.6654L86.8159 89.9899C86.6142 90.102 86.4067 90.2036 86.1944 90.2941C85.9758 90.3888 85.7499 90.4657 85.5188 90.524C85.2761 90.5866 85.0264 90.6184 84.7757 90.6186C84.4881 90.6211 84.2023 90.573 83.9313 90.4766C83.6713 90.3789 83.4394 90.2187 83.2557 90.0102C83.0457 89.7696 82.8912 89.4857 82.8031 89.1786C82.6869 88.7722 82.6322 88.3506 82.641 87.9279C82.6294 87.4543 82.6933 86.9819 82.8301 86.5285C82.9359 86.1848 83.1157 85.8686 83.3571 85.6023C83.5754 85.3698 83.8465 85.1935 84.1475 85.0885C84.4593 84.973 84.7879 84.9091 85.1203 84.8992ZM84.2218 85.6902C84.1507 85.7439 84.0929 85.8133 84.0529 85.893C83.9975 86.0005 83.9545 86.1139 83.9245 86.231C83.8837 86.3707 83.8521 86.513 83.83 86.6569C83.8199 86.8122 83.8199 86.9681 83.83 87.1234L86.1133 87.0287C86.0848 86.8443 86.0465 86.6615 85.9985 86.4811C85.9503 86.3104 85.8798 86.1468 85.7891 85.9944C85.708 85.8527 85.5946 85.7322 85.458 85.6428C85.314 85.548 85.1439 85.5007 84.9716 85.5076C84.8444 85.5074 84.7176 85.521 84.5933 85.5482C84.4575 85.5639 84.3277 85.6126 84.215 85.6902H84.2218Z" fill="#002D43"/>
<path id="Vector_26" d="M91.7468 87.3398C91.9494 87.7116 92.1453 88.0564 92.3345 88.3944C92.5236 88.7325 92.7061 89.0164 92.8817 89.2733C93.0226 89.4902 93.1856 89.6919 93.3681 89.875C93.4801 90.0045 93.637 90.0867 93.8072 90.1049H93.9423H94.0504V90.4226C93.9226 90.4634 93.7915 90.4928 93.6586 90.5105C93.5002 90.5383 93.3397 90.5518 93.1789 90.5511C92.9702 90.5553 92.7644 90.5014 92.5845 90.3956C92.3993 90.2794 92.2368 90.1305 92.1048 89.9561C91.9319 89.7267 91.7761 89.485 91.6387 89.2328C91.4765 88.942 91.2941 88.6108 91.078 88.2389C90.9023 88.5229 90.7334 88.8001 90.5713 89.0773C90.4203 89.3338 90.2557 89.582 90.0781 89.8209C89.926 90.0252 89.7438 90.2053 89.5377 90.355C89.3529 90.4883 89.1305 90.5593 88.9027 90.5578C88.7144 90.5569 88.5282 90.5178 88.3555 90.4429V90.1184H88.4433C88.6452 90.1189 88.8435 90.0652 89.0175 89.9629C89.2121 89.8355 89.3873 89.6806 89.5377 89.5032C89.7376 89.2623 89.9226 89.0095 90.0917 88.746L90.7672 87.7049L90.22 86.7178C90.0579 86.4271 89.9092 86.1837 89.7809 85.9877C89.679 85.822 89.5513 85.6736 89.4026 85.5482C89.2964 85.4537 89.1596 85.4009 89.0175 85.3995H88.8689V85.075H89.0648L89.2945 85.0412H89.5039H89.6728C89.8546 85.0342 90.0354 85.0713 90.1997 85.1494C90.352 85.2341 90.4854 85.3491 90.5916 85.4874C90.7353 85.6667 90.862 85.8591 90.9699 86.062C91.0982 86.2919 91.2468 86.5623 91.4292 86.8801L91.9089 86.1229C92.0345 85.9232 92.1722 85.7313 92.321 85.5482C92.4339 85.4069 92.5658 85.2818 92.7128 85.1764C92.8354 85.0897 92.9815 85.0425 93.1317 85.0412C93.2237 85.0302 93.3166 85.0302 93.4086 85.0412C93.4992 85.0614 93.5875 85.0908 93.6721 85.1291V85.4671H93.4627C93.3181 85.4705 93.1783 85.5203 93.0641 85.6091C92.9154 85.7178 92.7834 85.8476 92.6723 85.9944C92.5439 86.1635 92.402 86.3663 92.2534 86.6029C92.1048 86.8395 91.9359 87.0491 91.7468 87.3398Z" fill="#002D43"/>
<path id="Vector_27" d="M99.3069 85.9539L98.9488 85.7984C98.807 85.7443 98.6651 85.7037 98.5165 85.6632C98.3679 85.6226 98.2328 85.5888 98.0909 85.5618C97.9708 85.5372 97.8487 85.5236 97.7261 85.5212C97.5975 85.521 97.4698 85.5415 97.3478 85.582C97.212 85.6344 97.0863 85.7099 96.9762 85.8051C96.9099 85.8688 96.853 85.9416 96.8073 86.0215C96.7387 86.1369 96.6885 86.2623 96.6587 86.3933C96.6061 86.5856 96.5722 86.7826 96.5574 86.9815C96.5418 87.2675 96.5418 87.5541 96.5574 87.8401C96.5502 88.1601 96.5797 88.4799 96.6452 88.7933C96.6847 89.0159 96.7749 89.2264 96.9087 89.4085C97.0261 89.5541 97.1799 89.6661 97.3545 89.733C97.5552 89.7982 97.7651 89.8302 97.976 89.8277C98.2555 89.8249 98.534 89.7932 98.807 89.733C99.0731 89.6709 99.3331 89.5849 99.5839 89.4761L99.7325 89.8006C99.5906 89.902 99.442 90.0035 99.2799 90.0981C99.1148 90.1935 98.9432 90.277 98.7664 90.3482C98.5829 90.4218 98.3929 90.4784 98.199 90.5172C97.9974 90.5638 97.7911 90.5865 97.5842 90.5849C97.2944 90.5873 97.0064 90.5392 96.733 90.4429C96.4738 90.3437 96.2422 90.1837 96.0575 89.9764C95.8454 89.7351 95.6866 89.4518 95.5913 89.1449C95.3615 88.3246 95.3615 87.4569 95.5913 86.6367C95.6994 86.2894 95.8763 85.9675 96.1115 85.6902C96.3404 85.4307 96.6274 85.2291 96.9492 85.102C97.32 84.9607 97.7144 84.8918 98.1112 84.8992C98.3679 84.8992 98.6313 84.9127 98.9015 84.9398C99.165 84.9398 99.4082 85.0074 99.6312 85.048L99.3069 85.9539Z" fill="#002D43"/>
<path id="Vector_28" d="M103.59 84.8992C103.819 84.9008 104.046 84.935 104.266 85.0006C104.498 85.0718 104.712 85.1916 104.894 85.3521C105.102 85.5421 105.27 85.772 105.387 86.0282C105.546 86.3449 105.653 86.685 105.705 87.0355V87.0964C105.65 87.1624 105.584 87.2174 105.509 87.2586C105.407 87.314 105.298 87.3549 105.184 87.3803C105.025 87.4267 104.863 87.4606 104.698 87.4817C104.474 87.5168 104.249 87.5394 104.023 87.5493L102.253 87.671V88.0158C102.213 88.5094 102.334 89.0026 102.597 89.422C102.722 89.5717 102.881 89.6895 103.061 89.7659C103.241 89.8423 103.436 89.875 103.631 89.8614C103.83 89.8609 104.03 89.8405 104.225 89.8006C104.424 89.7681 104.62 89.7229 104.813 89.6654L105.32 89.5031C105.443 89.4628 105.562 89.4131 105.678 89.3544L105.813 89.6654L105.293 89.9899C105.093 90.102 104.888 90.2036 104.678 90.2941C104.459 90.3879 104.233 90.4647 104.002 90.524C103.757 90.5862 103.505 90.618 103.252 90.6186C102.967 90.6215 102.683 90.5735 102.415 90.4766C102.154 90.3799 101.922 90.2195 101.739 90.0102C101.529 89.7696 101.375 89.4857 101.287 89.1786C101.17 88.7722 101.116 88.3506 101.124 87.9279C101.113 87.4543 101.177 86.9819 101.314 86.5285C101.419 86.1848 101.599 85.8686 101.84 85.6023C102.059 85.3698 102.33 85.1935 102.631 85.0885C102.938 84.9744 103.262 84.9105 103.59 84.8992ZM102.685 85.6902C102.614 85.7427 102.559 85.8126 102.523 85.893C102.465 86.0001 102.42 86.1135 102.388 86.231C102.349 86.3709 102.32 86.5132 102.3 86.6569C102.273 86.8109 102.259 86.967 102.259 87.1234L104.543 87.0287C104.517 86.8437 104.479 86.6607 104.428 86.4811C104.383 86.3093 104.312 86.1452 104.218 85.9944C104.137 85.8527 104.024 85.7322 103.887 85.6428C103.744 85.5462 103.573 85.4988 103.401 85.5076C103.274 85.5078 103.147 85.5214 103.023 85.5482C102.901 85.5712 102.786 85.6196 102.685 85.6902Z" fill="#002D43"/>
<path id="Vector_29" d="M107.771 90.4835V81.519L108.846 81.2485V90.4835H107.771Z" fill="#002D43"/>
<path id="Vector_30" d="M111.305 90.4835V81.519L112.379 81.2485V90.4835H111.305Z" fill="#002D43"/>
<path id="Vector_31" d="M116.979 84.8992C117.208 84.9013 117.435 84.9354 117.655 85.0006C117.887 85.0718 118.101 85.1916 118.283 85.3521C118.489 85.5441 118.656 85.7735 118.776 86.0282C118.932 86.3462 119.039 86.6857 119.094 87.0355V87.0964C119.039 87.1624 118.973 87.2174 118.898 87.2586C118.795 87.3129 118.686 87.3538 118.574 87.3803C118.412 87.4266 118.247 87.4605 118.08 87.4817C117.857 87.5171 117.631 87.5397 117.405 87.5493L115.635 87.671V88.0158C115.597 88.5084 115.715 89.0004 115.973 89.422C116.099 89.5722 116.259 89.6904 116.44 89.7668C116.621 89.8431 116.817 89.8756 117.013 89.8614C117.213 89.8606 117.412 89.8402 117.607 89.8006C117.806 89.7667 118.002 89.7215 118.195 89.6654L118.702 89.5031C118.823 89.463 118.94 89.4133 119.053 89.3544L119.188 89.6654C119.04 89.7668 118.864 89.8749 118.675 89.9899C118.473 90.102 118.266 90.2036 118.053 90.2941C117.834 90.3879 117.609 90.4647 117.378 90.524C117.135 90.5866 116.885 90.6184 116.635 90.6186C116.347 90.6216 116.061 90.5736 115.79 90.4766C115.532 90.3765 115.3 90.2167 115.115 90.0102C114.909 89.7674 114.757 89.484 114.669 89.1786C114.55 88.7726 114.493 88.3509 114.5 87.9279C114.49 87.454 114.556 86.9815 114.696 86.5285C114.802 86.1848 114.981 85.8686 115.223 85.6023C115.441 85.3698 115.712 85.1935 116.013 85.0885C116.323 84.9737 116.649 84.9098 116.979 84.8992ZM116.081 85.6902C116.01 85.7439 115.952 85.8133 115.912 85.893C115.857 86.0005 115.813 86.1139 115.783 86.231C115.743 86.3707 115.711 86.513 115.689 86.6569C115.668 86.8115 115.656 86.9673 115.655 87.1234L117.939 87.0287C117.91 86.8443 117.872 86.6615 117.824 86.4811C117.775 86.3104 117.705 86.1468 117.614 85.9944C117.533 85.8527 117.42 85.7322 117.283 85.6428C117.139 85.548 116.969 85.5007 116.797 85.5076C116.67 85.5074 116.543 85.521 116.419 85.5482C116.297 85.57 116.181 85.6185 116.081 85.6902Z" fill="#002D43"/>
<path id="Vector_32" d="M124.903 90.4835V86.6773C124.913 86.5513 124.913 86.4247 124.903 86.2987C124.884 86.1795 124.837 86.0662 124.768 85.9674C124.697 85.8626 124.599 85.7786 124.484 85.724C124.331 85.6493 124.161 85.6144 123.991 85.6226C123.848 85.6258 123.706 85.6416 123.565 85.67C123.41 85.67 123.261 85.7443 123.106 85.7917C122.953 85.8368 122.804 85.8933 122.66 85.9607C122.518 86.0215 122.383 86.0891 122.268 86.15V90.4835H121.188V85.0209H122.093L122.241 85.6564L122.667 85.4198C122.836 85.3293 123.009 85.2481 123.187 85.1764C123.378 85.097 123.574 85.0314 123.775 84.9804C123.975 84.9264 124.182 84.8992 124.39 84.8993C124.608 84.8972 124.825 84.9315 125.031 85.0007C125.221 85.0591 125.395 85.1609 125.538 85.2981C125.682 85.4423 125.795 85.615 125.869 85.8052C125.952 86.0209 125.993 86.2502 125.991 86.4812V90.4564L124.903 90.4835Z" fill="#002D43"/>
<path id="Vector_33" d="M131.97 85.9538L131.605 85.7983C131.466 85.7452 131.324 85.7 131.18 85.6631C131.038 85.6225 130.889 85.5887 130.747 85.5617C130.63 85.5367 130.51 85.5231 130.389 85.5211C130.261 85.5209 130.133 85.5415 130.011 85.582C129.875 85.6344 129.75 85.7098 129.639 85.8051C129.573 85.8702 129.514 85.9428 129.464 86.0214C129.401 86.1396 129.351 86.2642 129.315 86.3932C129.268 86.5865 129.237 86.7832 129.221 86.9814C129.191 87.2666 129.178 87.5533 129.18 87.84C129.176 88.1599 129.206 88.4794 129.268 88.7932C129.312 89.0154 129.405 89.2253 129.538 89.4084C129.656 89.5541 129.809 89.666 129.984 89.7329C130.184 89.7987 130.395 89.8307 130.605 89.8276C130.883 89.825 131.159 89.7933 131.43 89.7329C131.698 89.6718 131.961 89.5858 132.213 89.4761L132.355 89.8006C132.212 89.9082 132.064 90.0075 131.909 90.098C131.744 90.1922 131.572 90.2757 131.396 90.3482C131.212 90.4218 131.022 90.4783 130.828 90.5172C130.627 90.5637 130.421 90.5864 130.214 90.5848C129.922 90.5866 129.632 90.5386 129.356 90.4428C129.097 90.3429 128.865 90.183 128.68 89.9763C128.466 89.7368 128.306 89.4529 128.214 89.1448C128.092 88.7395 128.035 88.3173 128.045 87.8941C128.04 87.4685 128.1 87.0446 128.221 86.6366C128.328 86.2906 128.503 85.969 128.734 85.6901C128.966 85.4305 129.255 85.229 129.579 85.102C129.947 84.9611 130.339 84.8923 130.734 84.8992C130.998 84.8992 131.262 84.9127 131.524 84.9397C131.794 84.9397 132.038 85.0073 132.261 85.0479L131.97 85.9538Z" fill="#002D43"/>
<path id="Vector_34" d="M136.239 84.8991C136.468 84.9012 136.695 84.9353 136.915 85.0005C137.146 85.0717 137.361 85.1915 137.543 85.352C137.749 85.544 137.916 85.7734 138.036 86.0281C138.195 86.3448 138.302 86.6849 138.353 87.0354V87.0962C138.299 87.1623 138.233 87.2173 138.158 87.2585C138.056 87.3139 137.946 87.3548 137.833 87.3802C137.672 87.4265 137.507 87.4604 137.34 87.4816C137.116 87.5174 136.891 87.5399 136.665 87.5492L134.895 87.6709V88.0157C134.855 88.5093 134.976 89.0025 135.239 89.4219C135.364 89.572 135.523 89.6902 135.703 89.7666C135.883 89.843 136.078 89.8755 136.273 89.8613C136.472 89.8605 136.672 89.8401 136.867 89.8005C137.066 89.7666 137.262 89.7214 137.455 89.6653L137.962 89.503C138.084 89.4615 138.204 89.4118 138.32 89.3543L138.455 89.6653L137.935 89.9898C137.733 90.1019 137.525 90.2034 137.313 90.294C137.094 90.3887 136.869 90.4656 136.638 90.5238C136.395 90.5865 136.145 90.6183 135.894 90.6185C135.607 90.621 135.321 90.5729 135.05 90.4765C134.79 90.3787 134.558 90.2186 134.374 90.01C134.164 89.7695 134.01 89.4856 133.922 89.1785C133.801 88.759 133.747 88.3235 133.76 87.8872C133.748 87.4137 133.812 86.9413 133.949 86.4878C134.055 86.1442 134.234 85.828 134.476 85.5616C134.694 85.3291 134.965 85.1529 135.266 85.0478C135.58 84.9461 135.909 84.8959 136.239 84.8991ZM135.34 85.69C135.269 85.7438 135.212 85.8132 135.172 85.8929C135.116 86.0004 135.073 86.1138 135.043 86.2309C135.002 86.3706 134.971 86.5129 134.949 86.6568C134.939 86.8121 134.939 86.968 134.949 87.1233L137.232 87.0286C137.203 86.8442 137.165 86.6614 137.117 86.481C137.069 86.3103 136.999 86.1467 136.908 85.9943C136.827 85.8526 136.713 85.7321 136.577 85.6427C136.433 85.5479 136.263 85.5006 136.09 85.5075C135.963 85.5073 135.836 85.5209 135.712 85.5481C135.579 85.5649 135.451 85.6136 135.34 85.69Z" fill="#002D43"/>
<g id="Group">
<path id="Vector_35" d="M61.5155 39.1504L61.9884 39.0558C61.9141 38.711 61.806 38.1837 61.6979 37.6699L61.6236 37.3183H61.2656L57.7527 37.0344L57.7121 37.5144L58.0769 37.8186C59.0295 36.6828 59.8807 35.7499 60.6373 34.729C60.823 34.4794 60.9709 34.2038 61.0764 33.911C61.1893 33.6167 61.2554 33.3064 61.2723 32.9916C61.3534 30.4901 61.6439 28.1104 62.8936 26.0079C63.1233 25.6225 63.3395 25.2372 63.5692 24.8992C63.778 24.5809 64.041 24.3018 64.3461 24.0744C64.5623 23.9256 64.7312 23.8107 64.8865 23.7228C65.0788 23.6079 65.2889 23.5256 65.508 23.4794C65.8222 23.4225 66.1414 23.3976 66.4606 23.4051H67.4469V22.9251V23.4051C67.7644 23.4051 68.1225 23.4051 68.5278 23.4051C70.8787 23.4051 74.5605 23.1482 77.7559 22.898L81.9308 22.5465L83.2819 22.4316L83.7008 22.3978H83.8967V22.1476V22.3978V22.1476V22.3978L83.944 21.9516L83.8088 22.3775C83.8378 22.3833 83.8677 22.3833 83.8967 22.3775L83.944 21.9313L83.8088 22.3572L83.9507 21.9042L83.667 22.2896C83.7087 22.3224 83.7571 22.3454 83.8088 22.3572L83.9507 21.9042L83.667 22.2896L83.9507 21.9042L83.5454 22.1611C83.5789 22.2101 83.6199 22.2535 83.667 22.2896L83.9507 21.9042L83.5454 22.1611L83.9507 21.9042H83.4711C83.4731 21.9949 83.4987 22.0834 83.5454 22.1611L83.9507 21.9042L83.4778 21.8434V21.9042H83.9575L83.4846 21.8434L83.4035 22.4654L84.025 22.3775C84.6965 22.2831 85.3736 22.2334 86.0517 22.2287C86.9879 22.2144 87.9197 22.3584 88.808 22.6547C89.9827 23.0635 91.0069 23.8175 91.7466 24.818C92.648 26.0646 93.3331 27.4542 93.7733 28.9285L94.2259 28.7797L94.5096 28.3876L92.0371 26.6366L90.7941 25.751L91.3075 27.191C91.7466 28.4214 92.1249 29.3747 92.4289 30.3347C92.7763 31.3842 92.9609 32.4809 92.9761 33.5865C92.9818 34.5067 92.8311 35.4211 92.5303 36.2907C92.2657 37.2198 92.0671 38.1663 91.9358 39.1234L91.8817 39.36L92.0506 39.5425L92.1925 39.7048C92.2169 39.7385 92.244 39.7701 92.2736 39.7994C92.3414 39.86 92.4223 39.904 92.51 39.9279C92.6548 39.9583 92.8015 39.9786 92.9491 39.9887C93.0255 39.9805 93.1025 39.9805 93.1788 39.9887C93.2666 39.9887 93.2869 39.9887 93.2869 39.9887C93.3097 40.0231 93.3236 40.0626 93.3274 40.1037C93.3364 40.2094 93.3364 40.3157 93.3274 40.4214C93.3261 40.6369 93.2703 40.8485 93.1653 41.0366C93.0487 41.238 92.8868 41.4093 92.6924 41.5369C92.213 41.9031 91.813 42.3632 91.5169 42.889C91.387 43.1188 91.2936 43.3674 91.24 43.6259C91.1792 43.8558 91.1386 44.0721 91.0846 44.2479C90.665 45.5796 89.8079 46.7303 88.6526 47.5132C87.5267 48.2851 86.1936 48.6975 84.8289 48.6963C83.35 48.7055 81.915 48.1933 80.7756 47.2496C80.2276 46.7771 79.7698 46.209 79.4245 45.573C79.0713 44.9165 78.7991 44.2196 78.6138 43.4975C78.6138 43.4975 78.6138 43.4231 78.6138 43.3487C78.5992 43.253 78.5789 43.1582 78.553 43.0648C78.4704 42.7968 78.3594 42.5385 78.222 42.2941C78.129 42.1434 78.0074 42.0125 77.864 41.9087C77.6922 41.7933 77.4899 41.7321 77.283 41.733C77.1825 41.7332 77.0826 41.7468 76.9857 41.7735C76.8255 41.8155 76.6744 41.8865 76.5399 41.9831C76.3589 42.1235 76.1995 42.2898 76.067 42.4766C75.9442 42.6477 75.8357 42.8286 75.7427 43.0175C75.5855 43.3787 75.4568 43.7517 75.3577 44.133C75.2709 44.4672 75.1603 44.7948 75.0266 45.1133C74.5622 46.1874 73.7854 47.0967 72.7973 47.7228C71.7389 48.3641 70.5215 48.6945 69.2844 48.6761C69.0547 48.6761 68.8183 48.6761 68.6088 48.6761C67.3539 48.6447 66.1381 48.2321 65.123 47.493C64.1663 46.7105 63.4807 45.6458 63.1639 44.4507C63.012 43.8488 62.8039 43.2626 62.5424 42.6997C62.2042 42.0215 61.6191 41.4989 60.9075 41.2394L60.7994 41.5099L61.0156 41.3138C60.9866 41.2801 60.9494 41.2544 60.9075 41.2394L60.7994 41.5099L61.0156 41.3138L60.9075 41.4152L61.0291 41.3273L60.921 41.4287L61.0426 41.3409H60.9953H61.0426H60.9953H61.0426C61.0041 41.2433 60.9791 41.141 60.9683 41.0366C60.937 40.7603 60.937 40.4814 60.9683 40.2051H60.8535L60.9616 40.2592V40.2254H60.8467L60.9548 40.2794C60.9774 40.2526 61.0023 40.2277 61.0291 40.2051C61.1373 40.1138 61.2501 40.0281 61.3669 39.9482C61.5155 39.84 61.6844 39.7251 61.8533 39.5763L62.0627 39.3938L62.0087 39.1166L61.5358 39.2113L61.225 38.8462C61.0224 39.022 60.7859 39.1775 60.5495 39.3397C60.4305 39.4211 60.3216 39.5164 60.2252 39.6237C60.1081 39.7556 60.0287 39.9168 59.9955 40.0901C59.9681 40.2668 59.9545 40.4454 59.955 40.6242C59.9534 40.9038 59.9828 41.1827 60.0428 41.4558C60.0697 41.5878 60.1152 41.7152 60.1779 41.8344C60.2152 41.9047 60.2605 41.9705 60.313 42.0304C60.3793 42.1056 60.4627 42.1635 60.5562 42.1994C60.8063 42.2912 61.0359 42.4313 61.2318 42.6118C61.4906 42.8666 61.6891 43.1762 61.8128 43.5178C61.9546 43.8828 62.0695 44.302 62.2046 44.7549C62.5824 46.1392 63.3831 47.3708 64.4947 48.2772C65.6657 49.122 67.0644 49.5933 68.5075 49.6293C68.771 49.6293 69.0277 49.6293 69.2777 49.6293C70.6718 49.6707 72.0499 49.3219 73.2567 48.622C74.4076 47.8993 75.314 46.8462 75.8576 45.6C76.0128 45.238 76.1415 44.8652 76.2426 44.4845C76.3263 44.1515 76.437 43.8259 76.5736 43.511C76.6576 43.3313 76.7643 43.1632 76.8912 43.0107C76.9465 42.9487 77.0075 42.8921 77.0736 42.8417C77.1014 42.8143 77.1366 42.7955 77.1749 42.7876H77.2424H77.283C77.3443 42.8469 77.3926 42.9182 77.4248 42.9972C77.4913 43.1473 77.55 43.3007 77.6005 43.4569C77.6053 43.4973 77.6053 43.5382 77.6005 43.5786C77.6129 43.6631 77.631 43.7467 77.6545 43.8287C77.8548 44.627 78.1544 45.397 78.5463 46.1206C78.9561 46.8604 79.4962 47.5201 80.1406 48.0676C81.4518 49.1574 83.1042 49.7509 84.8087 49.7442C86.3662 49.7431 87.8871 49.2719 89.1728 48.3921C90.5181 47.494 91.5167 46.1631 92.0033 44.6197C92.0844 44.3763 92.1249 44.1465 92.179 43.9437C92.2119 43.7764 92.2688 43.6147 92.3479 43.4637C92.5781 43.0526 92.8882 42.6917 93.2599 42.4023C93.5647 42.1911 93.8204 41.9167 94.0097 41.5978C94.1974 41.2634 94.2951 40.886 94.2935 40.5025C94.2908 40.3348 94.275 40.1675 94.2462 40.0023C94.2063 39.7634 94.0957 39.542 93.9287 39.3668C93.8183 39.2568 93.6843 39.1735 93.5369 39.1234C93.3699 39.0733 93.1975 39.0438 93.0234 39.0355C92.92 39.0439 92.8161 39.0439 92.7127 39.0355L92.6113 39.4276L92.8816 39.1234C92.8321 39.0824 92.7746 39.0525 92.7127 39.0355L92.6113 39.4276L92.8816 39.1234L92.7127 39.3127L92.8951 39.1437L92.7262 39.333L92.9086 39.164L92.7329 38.9611L92.3749 39.2856L92.8478 39.3803C92.9753 38.467 93.1649 37.5635 93.4152 36.6761C93.7452 35.7145 93.9118 34.7045 93.9084 33.6879C93.8944 32.4834 93.6938 31.2884 93.3139 30.1454C92.9964 29.1448 92.6384 28.1848 92.1857 26.9679L91.7331 27.1302L91.4561 27.5223L93.9016 29.1989L95.1041 30.044L94.638 28.6513C93.8476 26.2986 92.8748 24.4665 91.4764 23.2023C90.7778 22.5659 89.9573 22.0783 89.0647 21.769C88.0739 21.4397 87.0348 21.2797 85.9909 21.2958C85.2789 21.3005 84.568 21.3524 83.8629 21.4513L83.9304 21.9313L84.4101 21.9921V21.9313C84.4156 21.8396 84.3894 21.7489 84.3358 21.6744C84.2893 21.5977 84.2211 21.5365 84.1399 21.4986C84.0982 21.4745 84.0524 21.4585 84.0048 21.4513H83.9034H83.64C82.8023 21.5121 80.1068 21.7623 77.0668 21.9989C74.0268 22.2355 70.6625 22.4586 68.521 22.4586C68.1292 22.4586 67.7847 22.4586 67.4874 22.4586H66.4673C65.9724 22.4384 65.4775 22.4978 65.0014 22.6344C64.7959 22.7021 64.5988 22.7928 64.4136 22.9048C64.2043 23.0248 64.0014 23.1557 63.8056 23.2969C63.4065 23.5806 63.0611 23.9331 62.7856 24.338C62.5153 24.7301 62.2924 25.1358 62.0695 25.5009C60.7184 27.8332 60.3941 30.4023 60.3063 32.9375C60.3 33.1463 60.2565 33.3524 60.1779 33.5459C60.1019 33.7533 59.9973 33.9489 59.8672 34.1273C59.1443 35.1009 58.3134 36.0203 57.3406 37.1763L56.7461 37.893L57.6716 37.9673L61.1913 38.2513L61.2318 37.7713L60.7589 37.8659C60.867 38.3797 60.9751 38.9071 61.0494 39.2518L61.5155 39.1504L61.2048 38.7854L61.5155 39.1504ZM72.1082 32.5386L71.8313 32.1465C71.5205 32.3696 71.257 32.5454 70.9936 32.7482C69.0903 34.254 66.9727 35.4662 64.7109 36.3448C64.4204 36.453 64.1907 36.5341 63.988 36.6287C63.8409 36.6975 63.7025 36.7838 63.576 36.8856C63.4791 36.9707 63.3969 37.0712 63.3328 37.1831C63.2463 37.3443 63.1934 37.5214 63.1774 37.7037C63.1665 37.9018 63.1665 38.1004 63.1774 38.2986V38.5352C63.1843 38.7235 63.2046 38.911 63.2382 39.0963L63.2922 39.5561H63.7516C63.9881 39.5561 64.211 39.5561 64.4812 39.4952C65.7726 39.267 67.0813 39.1517 68.3927 39.1504C70.1729 39.1504 71.9459 39.3776 73.6688 39.8265C74.7922 40.1158 75.9473 40.2634 77.1073 40.2659C78.3134 40.2611 79.5141 40.1043 80.681 39.7994C82.3545 39.3568 84.0776 39.1296 85.8085 39.1234C86.7932 39.126 87.7769 39.1893 88.7539 39.3127C89.3011 39.3803 89.8618 39.4682 90.5712 39.5696L91.1521 39.6575L91.1184 39.0693C91.0305 37.6563 90.963 36.3651 90.8549 35.013C90.8061 34.5516 90.6947 34.0989 90.5239 33.6676C90.051 32.4507 89.5105 31.2879 89.0984 30.1116C88.896 29.3507 88.7381 28.5787 88.6256 27.7994L88.2743 26.0417L87.6865 27.7183C86.6192 30.862 85.0248 33.2823 82.5185 35.0468C79.9888 36.7619 76.979 37.6262 73.9255 37.5144H73.8714V37.9944L74.2227 38.3189L79.0259 33.0456L81.1404 30.7132L78.4382 32.302C74.6416 34.5262 70.8382 36.5341 66.366 37.5752L66.4741 38.0417L66.7984 38.3932C67.8995 37.3927 68.825 36.5679 69.7708 35.689C70.6896 34.7899 71.5408 33.8366 72.473 32.8563L71.8448 32.1397L72.1217 32.5318L71.7772 32.2006C70.8382 33.1876 69.9937 34.1273 69.075 35.0062C68.19 35.8716 67.2442 36.6896 66.1296 37.7104L64.7784 38.9476L66.5754 38.5352C71.203 37.4671 75.0942 35.3916 78.9111 33.1268L78.6746 32.7144L78.3166 32.3899L73.5134 37.6631L72.7838 38.5352H73.9255C77.1916 38.6379 80.4045 37.6901 83.0928 35.831C85.7443 33.9073 87.6887 31.163 88.6256 28.0225L88.1662 27.8671L87.7001 27.9617C87.8136 28.7857 87.9829 29.6011 88.2067 30.4023C88.6391 31.6394 89.1863 32.809 89.6389 33.9854C89.7616 34.3639 89.8321 34.7574 89.8483 35.1549C89.9564 36.4462 90.024 37.751 90.1118 39.1707H90.5914L90.659 38.6975C89.9834 38.5961 89.4024 38.5014 88.8215 38.4338C87.8065 38.3046 86.7844 38.2391 85.7612 38.2378C83.9496 38.235 82.145 38.4622 80.3905 38.9138C79.3035 39.2004 78.1842 39.3458 77.06 39.3465C75.9822 39.3453 74.9087 39.209 73.8647 38.9409C72.0609 38.4828 70.2063 38.2556 68.3454 38.2648C66.9868 38.2688 65.631 38.3864 64.292 38.6163C64.0681 38.6477 63.8425 38.6657 63.6165 38.6704V39.1504L64.0961 39.0963C64.0961 38.8732 64.0421 38.7313 64.0421 38.6434V38.3797C64.0276 38.202 64.0276 38.0234 64.0421 37.8456C64.0364 37.8075 64.0364 37.7688 64.0421 37.7307V37.6901C64.1207 37.6312 64.2071 37.5834 64.2988 37.5482L64.873 37.3251C67.2977 36.402 69.5686 35.1164 71.6083 33.5121C71.8448 33.3296 72.1015 33.1538 72.419 32.924L72.1352 32.5386L71.7907 32.2073L72.1082 32.5386ZM85.2005 39.5223L85.0992 39.0558C83.9575 39.2992 82.3361 39.5831 80.7418 40.0428C80.5682 40.0954 80.404 40.1752 80.2554 40.2794C80.0324 40.4358 79.8342 40.625 79.6677 40.8406C79.4984 41.051 79.3763 41.2954 79.3096 41.5572C79.2089 41.9826 79.1567 42.418 79.1543 42.8552C79.1641 44.3448 79.7557 45.7715 80.8026 46.8304C81.8721 47.9207 83.3294 48.543 84.856 48.5611H84.9708C85.8184 48.5797 86.6604 48.4188 87.4415 48.0891C88.2227 47.7594 88.9255 47.2683 89.5038 46.6479C90.6867 45.2991 91.3186 43.554 91.2737 41.76V41.6451C91.2747 41.3819 91.2498 41.1192 91.1994 40.8609C91.1645 40.6816 91.0982 40.5099 91.0035 40.3538C90.8594 40.1143 90.6446 39.9253 90.3888 39.813C90.1118 39.6989 89.8211 39.6216 89.5241 39.5831C88.2608 39.3871 87.0042 39.2789 85.2545 39.0761H85.1802H85.0992L85.2005 39.5425L85.1464 40.0225C86.9029 40.2254 88.1594 40.3335 89.3822 40.5228C89.5742 40.5429 89.7628 40.5883 89.9429 40.658C90.0095 40.6833 90.0712 40.7199 90.1253 40.7662C90.1904 40.8298 90.2331 40.9128 90.2469 41.0028C90.2984 41.2243 90.3188 41.4518 90.3077 41.6789C90.3077 41.6789 90.3077 41.7465 90.3077 41.7803C90.3405 43.317 89.8012 44.811 88.7944 45.9718C88.3075 46.4996 87.7144 46.9181 87.0542 47.2001C86.394 47.4821 85.6817 47.6211 84.964 47.6079H84.8627C84.2322 47.6015 83.6092 47.4703 83.0295 47.222C82.4498 46.9738 81.9249 46.6132 81.4849 46.1611C80.6177 45.2826 80.1321 44.0969 80.1338 42.862C80.1346 42.5003 80.1754 42.1398 80.2554 41.7871C80.2784 41.7082 80.3125 41.6331 80.3568 41.564C80.4451 41.4201 80.5544 41.2902 80.681 41.1786C80.7801 41.0906 80.8946 41.0218 81.0188 40.9758C82.5523 40.5296 84.1466 40.2524 85.3153 40.0023L85.214 39.529L85.16 40.009L85.2005 39.5223ZM69.0547 39.5223L69.0007 39.0423C67.278 39.2383 65.9877 39.3465 64.6906 39.5358C64.4316 39.5723 64.1762 39.6311 63.9272 39.7116C63.7594 39.7752 63.6022 39.8641 63.4611 39.9752C63.2492 40.1492 63.0979 40.3859 63.0288 40.6513C62.9576 40.9225 62.9257 41.2025 62.9342 41.4828V41.6045C62.9376 42.2851 63.0032 42.964 63.1301 43.6327C63.4282 45.0258 64.2022 46.2713 65.3189 47.1549C66.4058 48.0474 67.7637 48.5433 69.1696 48.5611C69.409 48.5588 69.648 48.543 69.8856 48.5138C71.3318 48.3619 72.669 47.6747 73.635 46.5871C74.547 45.459 75.0262 44.042 74.9861 42.5916C74.9861 42.4563 74.9861 42.3279 74.9861 42.1927C74.9769 41.7162 74.8442 41.2503 74.601 40.8406C74.473 40.6378 74.3052 40.463 74.1079 40.3268C73.9015 40.1862 73.6732 40.0811 73.4323 40.0158C71.8853 39.6304 70.3315 39.3397 69.1831 39.0761H69.1088H69.0277L69.0817 39.5561L68.9804 40.0293C70.1356 40.2794 71.6826 40.5837 73.2026 40.9623C73.3424 40.9942 73.4752 41.0515 73.5944 41.1313C73.739 41.2357 73.8513 41.3786 73.9187 41.5437C74.009 41.772 74.057 42.0148 74.0606 42.2603C74.0606 42.3752 74.0606 42.4902 74.0606 42.6051C74.095 43.8343 73.6848 45.0346 72.9054 45.9854C72.1057 46.8995 70.9915 47.4788 69.7843 47.6079C69.5869 47.6293 69.3884 47.6406 69.1898 47.6417C67.9987 47.6188 66.8494 47.1977 65.9251 46.4454C65.0008 45.6932 64.3546 44.6531 64.0894 43.4907C63.9755 42.8707 63.9167 42.2417 63.9137 41.6113V41.5099C63.907 41.335 63.9229 41.1601 63.961 40.9893C63.9722 40.927 63.9951 40.8673 64.0286 40.8135C64.0827 40.7464 64.1556 40.6969 64.238 40.6716C64.4347 40.5872 64.6412 40.5281 64.8528 40.4958C66.1093 40.3132 67.3928 40.1983 69.129 40.009L69.075 39.529L68.9736 40.0023L69.0547 39.5223Z" fill="#002D43"/>
<path id="Vector_36" d="M69.6835 44.275C69.6835 44.4465 69.6326 44.6141 69.5373 44.7565C69.442 44.899 69.3065 45.0099 69.1481 45.0752C68.9897 45.1404 68.8155 45.1572 68.6476 45.1232C68.4797 45.0893 68.3256 45.0062 68.205 44.8845C68.0843 44.7628 68.0025 44.608 67.9699 44.4397C67.9373 44.2714 67.9554 44.0972 68.0219 43.9392C68.0884 43.7812 68.2002 43.6465 68.3433 43.5522C68.4864 43.458 68.6543 43.4084 68.8256 43.4097C68.9388 43.4097 69.0509 43.4321 69.1555 43.4757C69.26 43.5193 69.3549 43.5831 69.4346 43.6636C69.5144 43.744 69.5774 43.8395 69.6202 43.9444C69.6629 44.0494 69.6844 44.1617 69.6835 44.275Z" fill="black"/>
<path id="Vector_37" d="M69.6837 44.2749H69.3662C69.3662 44.3835 69.3339 44.4896 69.2735 44.5798C69.2131 44.67 69.1272 44.7402 69.0268 44.7814C68.9265 44.8227 68.8161 44.8331 68.7098 44.8114C68.6034 44.7897 68.5059 44.7369 68.4297 44.6597C68.3534 44.5824 68.3019 44.4842 68.2815 44.3775C68.2612 44.2709 68.273 44.1605 68.3154 44.0606C68.3579 43.9607 68.4291 43.8756 68.52 43.8163C68.6108 43.7569 68.7173 43.726 68.8258 43.7273C68.8973 43.7273 68.9682 43.7415 69.0342 43.7691C69.1002 43.7967 69.1601 43.8371 69.2103 43.8881C69.2606 43.939 69.3003 43.9994 69.327 44.0658C69.3538 44.1322 69.3671 44.2033 69.3662 44.2749H70.008C70.008 44.0409 69.9387 43.8122 69.8088 43.6176C69.6789 43.423 69.4942 43.2714 69.2782 43.1819C69.0622 43.0923 68.8245 43.0689 68.5951 43.1145C68.3658 43.1602 68.1552 43.2729 67.9898 43.4383C67.8245 43.6038 67.7119 43.8146 67.6663 44.0441C67.6207 44.2736 67.6441 44.5115 67.7335 44.7277C67.823 44.9438 67.9746 45.1286 68.169 45.2586C68.3634 45.3886 68.592 45.458 68.8258 45.458C69.1388 45.4562 69.4384 45.331 69.6598 45.1095C69.8811 44.888 70.0062 44.5881 70.008 44.2749H69.6837Z" fill="#002D43"/>
<path id="Vector_38" d="M85.6669 44.275C85.6669 44.4462 85.6162 44.6135 85.5212 44.7558C85.4262 44.8981 85.2911 45.009 85.1331 45.0745C84.9751 45.14 84.8012 45.1572 84.6335 45.1238C84.4658 45.0904 84.3117 45.008 84.1908 44.8869C84.0698 44.7659 83.9875 44.6117 83.9541 44.4439C83.9208 44.276 83.9379 44.102 84.0033 43.9439C84.0688 43.7858 84.1796 43.6506 84.3218 43.5555C84.464 43.4604 84.6312 43.4097 84.8022 43.4097C84.916 43.4088 85.0289 43.4306 85.1342 43.4737C85.2395 43.5169 85.3352 43.5806 85.4157 43.6611C85.4961 43.7417 85.5598 43.8374 85.6029 43.9428C85.6461 44.0482 85.6678 44.1612 85.6669 44.275Z" fill="black"/>
<path id="Vector_39" d="M85.6675 44.2749H85.3432C85.3419 44.3816 85.309 44.4855 85.2488 44.5735C85.1886 44.6616 85.1038 44.7298 85.0049 44.7697C84.9061 44.8096 84.7976 44.8194 84.6932 44.7978C84.5888 44.7761 84.4932 44.7241 84.4183 44.6482C84.3434 44.5723 84.2926 44.4759 84.2722 44.3712C84.2519 44.2665 84.263 44.1581 84.3041 44.0596C84.3452 43.9612 84.4145 43.8771 84.5032 43.818C84.5919 43.7589 84.6961 43.7273 84.8027 43.7273C84.8743 43.7273 84.9451 43.7415 85.0111 43.7691C85.0771 43.7967 85.137 43.8371 85.1873 43.8881C85.2376 43.939 85.2772 43.9994 85.304 44.0658C85.3308 44.1322 85.3441 44.2033 85.3432 44.2749H86.0187C86.0187 44.0409 85.9494 43.8122 85.8195 43.6176C85.6896 43.423 85.505 43.2714 85.2889 43.1819C85.0729 43.0923 84.8352 43.0689 84.6059 43.1145C84.3766 43.1602 84.1659 43.2729 84.0006 43.4383C83.8352 43.6038 83.7226 43.8146 83.677 44.0441C83.6314 44.2736 83.6548 44.5115 83.7443 44.7277C83.8338 44.9438 83.9853 45.1286 84.1797 45.2586C84.3741 45.3886 84.6027 45.458 84.8365 45.458C85.1501 45.458 85.4508 45.3333 85.6725 45.1115C85.8942 44.8896 86.0187 44.5887 86.0187 44.2749H85.6675Z" fill="#002D43"/>
<path id="Vector_40" d="M63.1172 17.2259L63.2861 16.7729L58.6518 15.0422L57.9762 14.7921V15.5087C57.9831 16.1751 58.0237 16.8407 58.0978 17.503C58.1131 17.6202 58.1522 17.7329 58.2126 17.8343C58.2863 17.9493 58.3724 18.0559 58.4694 18.1521L58.6855 18.3549C58.804 18.4605 58.9085 18.5809 58.9963 18.7132C59.0344 18.7713 59.0533 18.8398 59.0503 18.9092C59.0426 19.0772 59.0037 19.2423 58.9355 19.396C58.9042 19.499 58.8883 19.6061 58.8882 19.7138C58.8986 19.9678 58.963 20.2168 59.0774 20.4439C59.4354 21.1199 59.8272 21.796 60.2393 22.5667L60.6649 22.3098V21.8298L56.2265 22.0935V22.5735L56.6724 22.7492C56.9899 21.938 57.3006 21.1943 57.5641 20.4169C57.6097 20.2656 57.6325 20.1084 57.6317 19.9504C57.6354 19.7361 57.5916 19.5237 57.5033 19.3284C57.4198 19.162 57.3715 18.9802 57.3615 18.7943C57.3601 18.6801 57.3905 18.5677 57.4493 18.4698C57.5363 18.325 57.6484 18.1968 57.7803 18.0912C57.9115 17.9746 58.0133 17.8287 58.0775 17.6653C58.1355 17.5164 58.1674 17.3586 58.1721 17.1988C58.1721 16.7323 58.0708 16.3402 58.0708 16.0292C58.0708 15.9819 58.0708 15.9346 58.0708 15.8873C58.0708 15.8197 58.0708 15.7521 58.0708 15.6912C58.0724 15.5039 58.038 15.318 57.9694 15.1436C57.8729 14.9032 57.7026 14.6996 57.483 14.5622C57.2916 14.4363 57.082 14.3406 56.8615 14.2783C55.9428 13.9673 55.024 13.6022 53.9769 13.1763L53.8013 13.6225L54.0445 14.0349C54.6322 13.6901 55.1118 13.3588 55.5915 13.129C57.483 12.169 59.3814 11.1684 61.2662 10.1408L69.9741 5.46248C71.5886 4.59037 73.183 3.7115 74.7975 2.88671C74.9099 2.83562 75.0322 2.81022 75.1556 2.81234C75.2247 2.79868 75.2959 2.79868 75.365 2.81234C77.851 3.75882 80.3236 4.76615 82.7961 5.73967C86.0996 7.03093 89.4098 8.30192 92.7065 9.57967L97.28 11.4185L97.4557 10.9723L97.226 10.5532C96.4288 10.9994 95.733 11.3983 95.0372 11.7769C93.0105 12.8788 90.9838 14.285 88.9572 15.3261L89.1126 15.6304V15.2856C89.0585 15.2878 89.0055 15.3017 88.9572 15.3261L89.1126 15.6304V15.5492L89.1801 15.3261H89.1126V15.5492L89.1801 15.3261V15.4073V15.3261V15.4073V15.3261L89.0382 15.2247L88.8558 15.076C86.882 13.5784 84.5549 12.6166 82.1003 12.2839C80.4431 12.0359 78.77 11.9093 77.0944 11.9053H76.831C73.2795 11.8572 69.7635 12.6177 66.549 14.1295C65.1068 14.7829 63.8144 15.7264 62.7524 16.9014L63.1172 17.2123L63.2861 16.7594L63.1172 17.2123L63.4887 17.5166C64.4639 16.426 65.6558 15.551 66.9881 14.9476C70.0755 13.5049 73.4511 12.7858 76.858 12.845H77.1079C78.7361 12.8507 80.3618 12.9749 81.9719 13.2168C84.2567 13.5305 86.4225 14.4268 88.2614 15.8197L88.3559 15.9008C88.4414 15.9743 88.5317 16.0421 88.6262 16.1036L88.8221 16.205C88.9129 16.2399 89.0086 16.2604 89.1058 16.2659C89.2073 16.2654 89.3071 16.2399 89.3963 16.1915C91.4635 15.1098 93.4902 13.7036 95.4763 12.6354C96.1924 12.2501 96.8882 11.8445 97.6786 11.405L98.5636 10.9047L97.6178 10.5397L93.0713 8.75488C89.7678 7.43657 86.4711 6.18586 83.1609 4.90136C80.6816 3.92784 78.2091 2.92051 75.7298 1.96727C75.5521 1.90369 75.3646 1.87166 75.1758 1.87262C74.9024 1.87028 74.6321 1.9304 74.3854 2.0484C72.7506 2.88671 71.1495 3.77234 69.5417 4.63093L60.8 9.30925C58.922 10.3098 57.0237 11.2969 55.1389 12.3042C54.6119 12.5814 54.1255 12.8923 53.5581 13.2304L52.6934 13.7307L53.6189 14.089C54.6525 14.4878 55.578 14.8867 56.5508 15.2112C56.7179 15.2524 56.8744 15.3284 57.0102 15.4343C57.0398 15.4559 57.0612 15.4869 57.071 15.5222C57.0824 15.5848 57.0824 15.6489 57.071 15.7115V15.8197C57.071 15.894 57.071 15.9752 57.071 16.0495C57.071 16.516 57.1723 16.9081 57.1655 17.2259C57.1728 17.2638 57.1728 17.3028 57.1655 17.3408V17.3814L57.2263 17.4354L57.1723 17.3746L57.2331 17.4287L57.179 17.3678C56.9543 17.557 56.7664 17.7862 56.6251 18.0439C56.4892 18.2854 56.4171 18.5577 56.4157 18.8349C56.4235 19.161 56.5019 19.4816 56.6454 19.7746C56.6739 19.8431 56.6877 19.9168 56.6859 19.9909C56.6919 20.0426 56.6919 20.0948 56.6859 20.1464C56.4359 20.8833 56.1319 21.6202 55.8144 22.445L55.5442 23.1211L56.2873 23.0738L60.7325 22.8101L61.4756 22.7695L61.1108 22.0935C60.6919 21.3295 60.3069 20.667 59.9623 19.9977C59.9169 19.9064 59.8872 19.8081 59.8745 19.707H59.807H59.8745H59.807H59.8745C59.9606 19.4564 60.0084 19.1943 60.0164 18.9295C60.0139 18.6914 59.9487 18.4582 59.8272 18.2535C59.6991 18.0414 59.5396 17.85 59.3543 17.6856C59.253 17.5842 59.1584 17.503 59.0976 17.4354C59.0767 17.4154 59.0585 17.3927 59.0436 17.3678L58.9422 17.4152H59.0503V17.3814L58.949 17.4287H59.0571C58.9828 16.8473 58.9963 16.2253 58.9693 15.5222H58.4896L58.3207 15.9752L62.9618 17.7059L63.2793 17.8276L63.4955 17.5639L63.1172 17.2259Z" fill="#002D43"/>
<path id="Vector_41" d="M64.4615 23.0874H64.9412C64.8601 21.7353 64.7588 20.4643 64.7317 19.1866C64.7556 19.1283 64.7874 19.0737 64.8263 19.0243C64.8787 18.9455 64.9424 18.8749 65.0155 18.8147C67.5706 16.7571 70.6643 15.4802 73.9261 15.137C75.1266 14.9788 76.3361 14.8975 77.547 14.8936C78.5888 14.8894 79.6295 14.9594 80.6613 15.1032C83.0352 15.408 85.3048 16.2647 87.2886 17.6046C87.342 17.6404 87.3879 17.6864 87.4237 17.7398C87.455 17.8098 87.4689 17.8864 87.4642 17.9629C87.5182 19.43 87.6196 20.5657 87.6939 21.377V21.4176H87.8222H87.7209H87.8222H87.7209L87.9844 21.4919L87.7817 21.3094C87.7503 21.3379 87.7289 21.3759 87.7209 21.4176L87.9844 21.4919L87.7817 21.3094L88.0046 21.5054L87.8628 21.2418C87.8322 21.2597 87.8049 21.2826 87.7817 21.3094L88.0046 21.5054L87.8628 21.2418L87.9641 21.4311L87.9033 21.2283H87.8628L87.9641 21.4176L87.9033 21.2147V21.2688V21.208V21.2621V21.2012H87.8222L82.053 21.5528L70.6294 22.2288L64.4548 22.6142V23.0942H64.9344H64.4548V23.5742L70.6294 23.1888L82.053 22.5128L87.8222 22.1612H88.0317C88.1016 22.1498 88.1697 22.1294 88.2343 22.1004C88.3634 22.0343 88.4694 21.9306 88.5383 21.8029C88.5952 21.685 88.623 21.5552 88.6194 21.4243V21.2959C88.5451 20.4914 88.4437 19.3759 88.3897 17.9156C88.3871 17.6954 88.3364 17.4785 88.2411 17.2801C88.1349 17.0835 87.9818 16.9162 87.7952 16.7933C85.6999 15.3751 83.304 14.4633 80.7965 14.1297C79.72 13.9782 78.6341 13.9037 77.547 13.9066C76.293 13.9114 75.0407 13.9972 73.7977 14.1635C70.3596 14.53 67.0996 15.8795 64.4075 18.0508C64.2522 18.1798 64.1157 18.33 64.0021 18.497C63.8594 18.6941 63.7793 18.9297 63.7725 19.1731C63.7725 20.5252 63.9076 21.8029 63.9819 23.1145V23.6012H64.4615V23.0874Z" fill="#002D43"/>
<path id="Vector_42" d="M37.7498 26.1905V26.6705C38.7403 26.6966 39.7272 26.5408 40.6615 26.2108C41.1921 26.0151 41.6788 25.7165 42.0937 25.3319C42.624 24.8195 43.0048 24.172 43.1948 23.4592C43.3674 22.7973 43.4492 22.115 43.438 21.4311C43.394 19.5957 43.2201 17.7658 42.9178 15.955C42.6242 14.2115 42.4549 12.4493 42.4112 10.6818C42.3927 9.43869 42.6224 8.20444 43.0867 7.05133C43.6719 5.624 44.7611 4.46182 46.147 3.78598C47.7411 3.02959 49.4906 2.65905 51.2542 2.70429H52.1257V5.30035H51.4501C50.5771 5.28101 49.7076 5.4184 48.883 5.70598C48.3678 5.90012 47.8935 6.18904 47.4846 6.55781C46.8958 7.10989 46.4664 7.81048 46.2416 8.58598C45.9911 9.46497 45.8727 10.3764 45.8903 11.2902C45.9154 12.8503 46.0667 14.4058 46.3429 15.9415C46.6235 17.531 46.7726 19.1409 46.7888 20.755V20.9578C46.8773 22.4782 46.4721 23.9866 45.6336 25.2575C44.8535 26.2592 43.7505 26.9593 42.5125 27.2384L42.1545 27.333V28.2051L42.5193 28.2998C43.7638 28.5538 44.8706 29.2593 45.6268 30.2806C46.4636 31.5728 46.8703 33.0968 46.7888 34.6344V34.844C46.7755 36.4582 46.6263 38.0684 46.3429 39.6575C46.0656 41.2203 45.9143 42.8029 45.8903 44.3899C45.8773 45.2426 45.9796 46.0931 46.1943 46.9184C46.4434 47.9929 47.072 48.9412 47.9642 49.5888C49.0023 50.2322 50.2099 50.5479 51.4298 50.4947H52.1054V53.0705H51.2542C50.0481 53.0866 48.8456 52.9365 47.6805 52.6243C46.1539 52.2534 44.8042 51.3617 43.8636 50.1026C42.8214 48.5134 42.3126 46.6331 42.4112 44.7347C42.4549 42.9873 42.6243 41.2454 42.9178 39.5223C43.2207 37.7752 43.3946 36.0082 43.438 34.2356C43.4374 33.6639 43.3693 33.0943 43.2353 32.5387C43.0193 31.5589 42.4671 30.6858 41.6748 30.0711C40.5133 29.2891 39.1269 28.9114 37.7296 28.9961V29.4761H38.2092V26.1905H37.7296H37.2432V29.9561H37.7296C38.6005 29.9289 39.4682 30.0736 40.2832 30.382C40.708 30.5417 41.0963 30.7855 41.4249 31.0987C41.8308 31.5072 42.1221 32.0155 42.2693 32.5725C42.4177 33.1094 42.4883 33.665 42.4787 34.222C42.4363 35.9474 42.2646 37.6671 41.9653 39.3668C41.6629 41.1367 41.4891 42.9262 41.4451 44.7212C41.4142 46.1889 41.6665 47.6488 42.1882 49.0209C42.8514 50.7087 44.1179 52.0894 45.7417 52.8947C47.4679 53.6903 49.3544 54.0767 51.2542 54.0237H53.0917V49.5347H51.4501C50.7218 49.5513 49.9964 49.4368 49.3086 49.1967C48.4981 48.9102 47.8315 48.3183 47.4508 47.5471C47.0102 46.5622 46.8044 45.4883 46.8496 44.4102C46.8752 42.8933 47.0221 41.3809 47.2887 39.8874C47.5818 38.247 47.7355 36.5847 47.7481 34.9184V34.6953C47.829 32.9551 47.3559 31.2342 46.3969 29.7803C45.5021 28.5775 44.2008 27.7413 42.7354 27.4277L42.6206 27.8941H43.1002V27.7184H42.6206L42.7489 28.1781C44.1989 27.8446 45.4883 27.0178 46.3969 25.8389C47.3619 24.4055 47.836 22.6974 47.7481 20.9713V20.755C47.7278 19.098 47.5742 17.4453 47.2887 15.813C47.0232 14.3285 46.8764 12.8251 46.8496 11.3172C46.835 10.5729 46.9168 9.82987 47.0928 9.10655C47.2001 8.67359 47.3757 8.26052 47.6129 7.88288C47.9487 7.3544 48.4361 6.93969 49.0113 6.69302C49.7851 6.37983 50.6159 6.23244 51.4501 6.26035H53.0917V1.75781H51.2542C48.4506 1.75781 46.0051 2.40007 44.2352 3.86711C43.3283 4.61858 42.6206 5.58224 42.1747 6.67274C41.6658 7.94438 41.4177 9.30545 41.4451 10.675C41.4888 12.488 41.6627 14.2954 41.9653 16.0834C42.2612 17.8495 42.4327 19.6342 42.4787 21.4243C42.485 21.9494 42.4306 22.4734 42.3166 22.986C42.2307 23.3608 42.0846 23.7193 41.8842 24.0474C41.5661 24.5681 41.0939 24.9769 40.5331 25.217C39.6471 25.5806 38.6932 25.7489 37.7363 25.7105H37.2499V26.1905H37.7498Z" fill="#002D43"/>
<path id="Vector_43" d="M114.169 30.9093V30.4226C113.17 30.3969 112.177 30.5669 111.244 30.9229C110.711 31.1393 110.225 31.456 109.811 31.8558C109.294 32.3848 108.917 33.0358 108.717 33.7488C108.548 34.3745 108.466 35.0206 108.474 35.6688C108.518 37.4414 108.691 39.2084 108.994 40.9555C109.29 42.6762 109.461 44.4159 109.507 46.1612C109.539 47.5064 109.31 48.8449 108.832 50.1026C108.263 51.5792 107.158 52.7865 105.738 53.4829C104.148 54.2174 102.408 54.5694 100.658 54.5105H99.7862V51.9279H100.462C101.308 51.9463 102.15 51.8112 102.948 51.5291C103.976 51.1576 104.823 50.4049 105.312 49.4265C105.829 48.3076 106.075 47.0821 106.028 45.8502C106.002 44.2629 105.849 42.6804 105.569 41.1178C105.285 39.5287 105.136 37.9185 105.123 36.3043V36.1015C105.043 34.5744 105.445 33.0608 106.272 31.7747C107.029 30.7536 108.135 30.0464 109.379 29.7871L109.744 29.6992V28.8068L109.386 28.7122C108.146 28.4334 107.042 27.7305 106.265 26.7246C105.429 25.4549 105.024 23.9496 105.11 22.4316V22.2288C105.126 20.6125 105.275 19.0003 105.555 17.4085C105.833 15.873 105.987 14.3175 106.015 12.7572C106.029 11.9307 105.936 11.1058 105.738 10.3031C105.591 9.77101 105.363 9.26475 105.062 8.8023C104.622 8.11843 103.99 7.57986 103.245 7.25413C102.348 6.88722 101.383 6.71221 100.414 6.74033H99.7389V4.1578H100.658C103.319 4.1578 105.535 4.77301 107.062 6.04399C107.851 6.69715 108.466 7.53561 108.852 8.48456C109.318 9.63726 109.548 10.8718 109.528 12.115C109.481 13.8827 109.31 15.6448 109.014 17.3882C108.712 19.199 108.538 21.0289 108.494 22.8643C108.484 23.4714 108.548 24.0775 108.683 24.6693C108.787 25.1344 108.965 25.5795 109.21 25.9876C109.631 26.6739 110.254 27.2125 110.994 27.5291C112.005 27.9488 113.095 28.147 114.189 28.1105V27.6305H113.709V30.9093H114.169H114.648V27.1505H114.169C113.294 27.175 112.422 27.0399 111.595 26.7516C111.182 26.6027 110.803 26.3729 110.48 26.0755C110.078 25.6813 109.789 25.1864 109.643 24.6423C109.493 24.064 109.423 23.4682 109.433 22.871C109.479 21.0809 109.651 19.2962 109.947 17.5302C110.249 15.7422 110.423 13.9347 110.467 12.1217C110.491 10.749 110.238 9.38551 109.724 8.11272C109.051 6.47474 107.804 5.13838 106.217 4.35385C104.48 3.53938 102.576 3.14346 100.658 3.1978H98.8269V7.70033H100.462C101.22 7.68031 101.975 7.79711 102.691 8.04512C103.095 8.19915 103.467 8.42856 103.785 8.72118C104.227 9.16382 104.546 9.7136 104.711 10.3167C104.941 11.109 105.046 11.9325 105.022 12.7572C105.002 14.2633 104.855 15.7649 104.583 17.2462C104.292 18.8869 104.138 20.549 104.123 22.2153V22.4316C104.038 24.1553 104.512 25.8605 105.474 27.2924C106.381 28.4747 107.671 29.3042 109.122 29.6384L109.244 29.1719H108.764V29.3003H109.244L109.129 28.8338C107.662 29.1475 106.36 29.9865 105.468 31.1933C104.512 32.6485 104.039 34.3684 104.117 36.1082V36.3246C104.129 37.9932 104.282 39.6577 104.576 41.3003C104.848 42.8067 104.995 44.3331 105.015 45.8637C105.031 46.6271 104.942 47.3891 104.752 48.1285C104.554 48.9732 104.06 49.7191 103.36 50.231C102.485 50.7696 101.467 51.0268 100.441 50.9679H98.8066V55.4705H100.658C101.953 55.4865 103.244 55.325 104.495 54.9905C106.229 54.5548 107.76 53.5355 108.832 52.1037C109.993 50.349 110.565 48.27 110.467 46.1679C110.423 44.3752 110.249 42.5879 109.947 40.8203C109.651 39.1201 109.479 37.4007 109.433 35.6755C109.428 35.1795 109.482 34.6847 109.595 34.2017C109.754 33.4385 110.178 32.756 110.791 32.275C111.79 31.6191 112.977 31.3102 114.169 31.3961H114.648V30.9093H114.169Z" fill="#002D43"/>
</g>
</g>
<defs>
<clipPath id="clip0_570_125">
<rect width="152" height="96" fill="white"/>
</clipPath>
</defs>
</svg>
