<svg width="99" height="112" viewBox="0 0 99 112" fill="none" xmlns="http://www.w3.org/2000/svg">
<path id="1" d="M98.9008 84.0912C94.2497 92.5283 87.5598 99.5348 79.5033 104.406C71.4469 109.278 62.3078 111.843 53.0046 111.844C43.7014 111.845 34.5619 109.281 26.5047 104.411C18.4474 99.5411 11.7563 92.5359 7.10373 84.0996C2.45121 75.6633 0.00121824 66.0933 4.54202e-07 56.3513C-0.00121733 46.6092 2.44638 37.0385 7.0968 28.601C11.7472 20.1634 18.4366 13.1564 26.4926 8.28402C34.5487 3.41167 43.6875 0.845694 52.9907 0.843994L52.9938 19.344C46.7917 19.3451 40.6991 21.0558 35.3284 24.304C29.9577 27.5523 25.4981 32.2236 22.3979 37.8487C19.2976 43.4737 17.6658 49.8542 17.6667 56.3488C17.6675 62.8435 19.3008 69.2235 22.4025 74.8477C25.5042 80.4719 29.9649 85.1421 35.3364 88.3888C40.7079 91.6356 46.8009 93.3446 53.0031 93.344C59.2052 93.3434 65.2979 91.6333 70.6689 88.3856C76.0398 85.1378 80.4998 80.4669 83.6006 74.8421L98.9008 84.0912Z" fill="#06C819"/>
</svg>
