<svg width="34" height="29" viewBox="0 0 34 29" fill="none" xmlns="http://www.w3.org/2000/svg">
<path id="Vector" d="M4.26067 12.5127C4.02918 12.9128 3.90907 13.3518 3.90941 13.7965L4.04003 20.6813L1.19409 25.8053C1.09106 25.9648 1.02211 26.1381 0.990372 26.3175C0.953713 26.5189 0.964859 26.7244 1.02317 26.9222C1.08148 27.12 1.1858 27.3061 1.33014 27.47C1.47448 27.6338 1.65599 27.7721 1.86425 27.8769C2.0725 27.9817 2.30338 28.0509 2.54363 28.0806C2.9179 28.1287 3.30075 28.079 3.64017 27.9382C3.97958 27.7974 4.25909 27.5723 4.4407 27.2936L7.57158 21.6926C7.63655 21.5626 7.69475 21.4257 7.71844 21.2758L7.73536 21.0646L7.711 16.8082L12.5224 18.5639L13.2993 22.7238C13.38 23.0295 13.5694 23.3074 13.8424 23.521C14.1153 23.7345 14.4591 23.8735 14.8282 23.9196C15.3127 23.9796 15.8058 23.8771 16.2008 23.6342C16.5957 23.3914 16.8608 23.0278 16.9385 22.6221C16.9622 22.4785 16.9622 22.3348 16.9459 22.1985L15.9977 17.1768C15.9408 16.9358 15.8171 16.7095 15.6368 16.516C15.4565 16.3225 15.2245 16.1672 14.9595 16.0627L10.6591 14.466L13.3975 10.4833L14.7558 11.925C14.8946 12.0545 15.0746 12.164 15.2783 12.2322L20.4545 13.4956C20.7893 13.5569 21.1391 13.5173 21.4426 13.3838C21.7461 13.2503 21.9838 13.0313 22.114 12.7654C22.1861 12.6168 22.2226 12.4577 22.2214 12.2973C22.2201 12.1368 22.1812 11.9781 22.1069 11.8303C22.0325 11.6825 21.9242 11.5484 21.788 11.4358C21.6518 11.3231 21.4905 11.2341 21.3133 11.1738L21.2396 11.1533L16.7422 10.0466L13.3569 6.65165C12.8345 6.18419 12.1412 5.87627 11.3867 5.77664C10.7352 5.69514 10.0696 5.77524 9.4717 6.00708C8.87381 6.23892 8.36978 6.61238 8.02165 7.08149L4.26067 12.5127ZM19.109 22.3837L18.7821 24.4465L9.87811 26.2562L9.96406 27.5315H31.6799C31.8621 27.5322 32.0426 27.5027 32.2112 27.4447C32.3798 27.3867 32.533 27.3014 32.6622 27.1936C32.7915 27.0859 32.894 26.9578 32.9641 26.8167C33.0342 26.6756 33.0704 26.5243 33.0707 26.3715L33.0463 1.91604L30.0711 1.33573L28.3615 7.76515L25.5034 8.76905L22.9688 14.6977L25.3768 19.234L24.6987 20.9755L19.109 22.3837ZM13.0631 5.4757C14.592 5.4757 15.8346 4.43772 15.8346 3.16013C15.834 1.8831 14.592 0.843994 13.0631 0.843994C11.5342 0.843994 10.291 1.8831 10.291 3.16013C10.2903 4.43772 11.5336 5.4757 13.0631 5.4757ZM7.54789 5.83797C7.59951 5.76262 7.63285 5.67945 7.64599 5.59325C7.65912 5.50705 7.6518 5.41951 7.62443 5.3357C7.59706 5.25188 7.5502 5.17343 7.48653 5.10488C7.42287 5.03633 7.34366 4.97902 7.25348 4.93627L5.91206 4.28044C5.72864 4.19328 5.51169 4.17021 5.30815 4.21622C5.10461 4.26223 4.93084 4.37363 4.82444 4.5263L0.687843 10.4907C0.636464 10.566 0.603304 10.6492 0.590261 10.7353C0.577218 10.8214 0.584547 10.9089 0.61183 10.9926C0.639112 11.0764 0.685812 11.1548 0.749258 11.2234C0.812703 11.292 0.891647 11.3494 0.981574 11.3924L2.33111 12.042C2.51218 12.1297 2.7273 12.1538 2.92946 12.1089C3.13161 12.064 3.30436 11.9538 3.40993 11.8023L7.54789 5.83797Z" fill="black"/>
</svg>
