<svg width="30" height="30" viewBox="0 0 30 30" fill="none" xmlns="http://www.w3.org/2000/svg">
<path d="M21.25 27.5C19.5208 27.5 18.0467 26.8904 16.8275 25.6713C15.6083 24.4521 14.9992 22.9783 15 21.25C15 19.5208 15.6096 18.0467 16.8288 16.8275C18.0479 15.6083 19.5217 14.9992 21.25 15C22.9792 15 24.4533 15.6096 25.6725 16.8288C26.8917 18.0479 27.5008 19.5217 27.5 21.25C27.5 22.9792 26.8904 24.4533 25.6713 25.6725C24.4521 26.8917 22.9783 27.5008 21.25 27.5ZM21.875 21V18.125C21.875 17.9583 21.8125 17.8125 21.6875 17.6875C21.5625 17.5625 21.4167 17.5 21.25 17.5C21.0833 17.5 20.9375 17.5625 20.8125 17.6875C20.6875 17.8125 20.625 17.9583 20.625 18.125V20.9688C20.625 21.1354 20.6563 21.2971 20.7188 21.4538C20.7813 21.6104 20.875 21.7508 21 21.875L22.9063 23.7813C23.0313 23.9063 23.1771 23.9688 23.3438 23.9688C23.5104 23.9688 23.6563 23.9063 23.7813 23.7813C23.9063 23.6563 23.9688 23.5104 23.9688 23.3438C23.9688 23.1771 23.9063 23.0313 23.7813 22.9063L21.875 21ZM6.25 26.25C5.5625 26.25 4.97375 26.005 4.48375 25.515C3.99375 25.025 3.74917 24.4367 3.75 23.75V6.25C3.75 5.5625 3.995 4.97375 4.485 4.48375C4.975 3.99375 5.56334 3.74917 6.25 3.75H11.4688C11.6979 3.02084 12.1458 2.42167 12.8125 1.9525C13.4792 1.48334 14.2083 1.24917 15 1.25C15.8333 1.25 16.5783 1.48459 17.235 1.95375C17.8917 2.42292 18.3342 3.02167 18.5625 3.75H23.75C24.4375 3.75 25.0263 3.995 25.5163 4.485C26.0063 4.975 26.2508 5.56334 26.25 6.25V14.0625C25.875 13.7917 25.4792 13.5625 25.0625 13.375C24.6458 13.1875 24.2083 13.0208 23.75 12.875V6.25H21.25V8.75C21.25 9.10417 21.13 9.40125 20.89 9.64125C20.65 9.88125 20.3533 10.0008 20 10H10C9.64584 10 9.34875 9.88 9.10875 9.64C8.86875 9.4 8.74917 9.10334 8.75 8.75V6.25H6.25V23.75H12.875C13.0208 24.2083 13.1875 24.6458 13.375 25.0625C13.5625 25.4792 13.7917 25.875 14.0625 26.25H6.25ZM15 6.25C15.3542 6.25 15.6513 6.13 15.8913 5.89C16.1313 5.65 16.2508 5.35334 16.25 5C16.25 4.64584 16.13 4.34875 15.89 4.10875C15.65 3.86875 15.3533 3.74917 15 3.75C14.6458 3.75 14.3488 3.87 14.1088 4.11C13.8688 4.35 13.7492 4.64667 13.75 5C13.75 5.35417 13.87 5.65125 14.11 5.89125C14.35 6.13125 14.6467 6.25084 15 6.25Z" fill="#F24E1E"/>
</svg>
