<svg width="30" height="30" viewBox="0 0 30 30" fill="none" xmlns="http://www.w3.org/2000/svg">
<path d="M20 17.5H21.875V21.025L24.925 22.7875L23.9875 24.4125L20 22.1125V17.5ZM21.25 15C19.5924 15 18.0027 15.6585 16.8306 16.8306C15.6585 18.0027 15 19.5924 15 21.25C15 22.9076 15.6585 24.4973 16.8306 25.6694C18.0027 26.8415 19.5924 27.5 21.25 27.5C22.9076 27.5 24.4973 26.8415 25.6694 25.6694C26.8415 24.4973 27.5 22.9076 27.5 21.25C27.5 19.5924 26.8415 18.0027 25.6694 16.8306C24.4973 15.6585 22.9076 15 21.25 15ZM21.25 12.5C23.5706 12.5 25.7962 13.4219 27.4372 15.0628C29.0781 16.7038 30 18.9294 30 21.25C30 23.5706 29.0781 25.7962 27.4372 27.4372C25.7962 29.0781 23.5706 30 21.25 30C17.7625 30 14.75 27.95 13.3375 25H1.25V21.25C1.25 17.925 7.9125 16.25 11.25 16.25C12 16.25 12.925 16.3375 13.9 16.5C14.6928 15.2718 15.7811 14.262 17.0652 13.5632C18.3492 12.8644 19.7881 12.4988 21.25 12.5ZM12.5 21.25C12.5 20.375 12.625 19.525 12.8625 18.75C12.3375 18.6625 11.7875 18.625 11.25 18.625C7.5375 18.625 3.625 20.45 3.625 21.25V22.625H12.6125C12.5373 22.1705 12.4997 21.7106 12.5 21.25ZM11.25 5C12.5761 5 13.8479 5.52678 14.7855 6.46447C15.7232 7.40215 16.25 8.67392 16.25 10C16.25 11.3261 15.7232 12.5979 14.7855 13.5355C13.8479 14.4732 12.5761 15 11.25 15C9.92392 15 8.65215 14.4732 7.71447 13.5355C6.77678 12.5979 6.25 11.3261 6.25 10C6.25 8.67392 6.77678 7.40215 7.71447 6.46447C8.65215 5.52678 9.92392 5 11.25 5ZM11.25 7.375C10.5538 7.375 9.88613 7.65156 9.39384 8.14384C8.90156 8.63613 8.625 9.30381 8.625 10C8.625 10.6962 8.90156 11.3639 9.39384 11.8562C9.88613 12.3484 10.5538 12.625 11.25 12.625C11.9462 12.625 12.6139 12.3484 13.1062 11.8562C13.5984 11.3639 13.875 10.6962 13.875 10C13.875 9.30381 13.5984 8.63613 13.1062 8.14384C12.6139 7.65156 11.9462 7.375 11.25 7.375Z" fill="#F24E1E"/>
</svg>
