<svg width="30" height="30" viewBox="0 0 30 30" fill="none" xmlns="http://www.w3.org/2000/svg">
<g id="ph:arrow-up-thin">
<path id="Vector" d="M16.5435 6.23084C16.4999 6.27438 16.4653 6.32607 16.4417 6.38298C16.4181 6.43988 16.406 6.50088 16.406 6.56248C16.406 6.62408 16.4181 6.68508 16.4417 6.74199C16.4653 6.79889 16.4999 6.85059 16.5435 6.89412L24.1806 14.5312L4.68762 14.5312C4.5633 14.5312 4.44407 14.5806 4.35616 14.6685C4.26826 14.7564 4.21887 14.8757 4.21887 15C4.21887 15.1243 4.26826 15.2435 4.35616 15.3314C4.44407 15.4193 4.5633 15.4687 4.68762 15.4687L24.1806 15.4687L16.5435 23.1058C16.4999 23.1494 16.4654 23.2011 16.4418 23.258C16.4182 23.3149 16.4061 23.3759 16.4061 23.4375C16.4061 23.4991 16.4182 23.5601 16.4418 23.617C16.4654 23.6739 16.4999 23.7256 16.5435 23.7691C16.587 23.8127 16.6387 23.8472 16.6956 23.8708C16.7525 23.8944 16.8135 23.9065 16.8751 23.9065C16.9367 23.9065 16.9977 23.8944 17.0546 23.8708C17.1115 23.8472 17.1632 23.8127 17.2068 23.7691L25.6443 15.3316C25.6878 15.2881 25.7224 15.2364 25.746 15.1795C25.7696 15.1226 25.7817 15.0616 25.7817 15C25.7817 14.9384 25.7696 14.8774 25.746 14.8205C25.7224 14.7636 25.6878 14.7119 25.6443 14.6683L17.2068 6.23084C17.1632 6.18726 17.1115 6.15269 17.0546 6.1291C16.9977 6.1055 16.9367 6.09336 16.8751 6.09336C16.8135 6.09336 16.7525 6.1055 16.6956 6.1291C16.6387 6.15269 16.587 6.18726 16.5435 6.23084Z" fill="black"/>
</g>
</svg>
