<svg xmlns="http://www.w3.org/2000/svg" xmlns:xlink="http://www.w3.org/1999/xlink" version="1.1" width="940" height="788" viewBox="0 0 940 788" xml:space="preserve">
<desc>Created with Fabric.js 3.5.0</desc>
<defs>
</defs>
<rect x="0" y="0" width="100%" height="100%" fill="#f9f9f9"/>
<g transform="matrix(27.2574 0 0 23.1343 507.9804 399.1442)" id="613853">
<path style="stroke: none; stroke-width: 0; stroke-dasharray: none; stroke-linecap: butt; stroke-dashoffset: 0; stroke-linejoin: miter; stroke-miterlimit: 4; is-custom-font: none; font-file-url: none; fill: rgb(255,51,51); fill-rule: nonzero; opacity: 1;" vector-effect="non-scaling-stroke" transform=" translate(-15.625, -17.5)" d="M 20 17.5 H 21.875 V 21.025 L 24.925 22.7875 L 23.9875 24.4125 L 20 22.1125 V 17.5 Z M 21.25 15 C 19.5924 15 18.0027 15.6585 16.8306 16.8306 C 15.6585 18.0027 15 19.5924 15 21.25 C 15 22.9076 15.6585 24.4973 16.8306 25.6694 C 18.0027 26.8415 19.5924 27.5 21.25 27.5 C 22.9076 27.5 24.4973 26.8415 25.6694 25.6694 C 26.8415 24.4973 27.5 22.9076 27.5 21.25 C 27.5 19.5924 26.8415 18.0027 25.6694 16.8306 C 24.4973 15.6585 22.9076 15 21.25 15 Z M 21.25 12.5 C 23.5706 12.5 25.7962 13.4219 27.4372 15.0628 C 29.0781 16.7038 30 18.9294 30 21.25 C 30 23.5706 29.0781 25.7962 27.4372 27.4372 C 25.7962 29.0781 23.5706 30 21.25 30 C 17.7625 30 14.75 27.95 13.3375 25 H 1.25 V 21.25 C 1.25 17.925 7.9125 16.25 11.25 16.25 C 12 16.25 12.925 16.3375 13.9 16.5 C 14.6928 15.2718 15.7811 14.262 17.0652 13.5632 C 18.3492 12.8644 19.7881 12.4988 21.25 12.5 Z M 12.5 21.25 C 12.5 20.375 12.625 19.525 12.8625 18.75 C 12.3375 18.6625 11.7875 18.625 11.25 18.625 C 7.5375 18.625 3.625 20.45 3.625 21.25 V 22.625 H 12.6125 C 12.5373 22.1705 12.4997 21.7106 12.5 21.25 Z M 11.25 5 C 12.5761 5 13.8479 5.52678 14.7855 6.46447 C 15.7232 7.40215 16.25 8.67392 16.25 10 C 16.25 11.3261 15.7232 12.5979 14.7855 13.5355 C 13.8479 14.4732 12.5761 15 11.25 15 C 9.92392 15 8.65215 14.4732 7.71447 13.5355 C 6.77678 12.5979 6.25 11.3261 6.25 10 C 6.25 8.67392 6.77678 7.40215 7.71447 6.46447 C 8.65215 5.52678 9.92392 5 11.25 5 Z M 11.25 7.375 C 10.5538 7.375 9.88613 7.65156 9.39384 8.14384 C 8.90156 8.63613 8.625 9.30381 8.625 10 C 8.625 10.6962 8.90156 11.3639 9.39384 11.8562 C 9.88613 12.3484 10.5538 12.625 11.25 12.625 C 11.9462 12.625 12.6139 12.3484 13.1062 11.8562 C 13.5984 11.3639 13.875 10.6962 13.875 10 C 13.875 9.30381 13.5984 8.63613 13.1062 8.14384 C 12.6139 7.65156 11.9462 7.375 11.25 7.375 Z" stroke-linecap="round"/>
</g>
</svg>