<svg xmlns="http://www.w3.org/2000/svg" xmlns:xlink="http://www.w3.org/1999/xlink" version="1.1" width="940" height="788" viewBox="0 0 940 788" xml:space="preserve">
<desc>Created with Fabric.js 3.5.0</desc>
<defs>
</defs>
<rect x="0" y="0" width="100%" height="100%" fill="#f9f9f9"/>
<g transform="matrix(1 0 0 1 470 394)" id="692232">
<g style="" vector-effect="non-scaling-stroke">
		<g transform="matrix(16.8872 0 0 16.6782 -0.0001 -0.0006)" id="background">
<rect style="stroke: none; stroke-width: 1; stroke-dasharray: none; stroke-linecap: butt; stroke-dashoffset: 0; stroke-linejoin: miter; stroke-miterlimit: 4; is-custom-font: none; font-file-url: none; fill: none; fill-rule: nonzero; opacity: 1;" x="-16" y="-16" rx="0" ry="0" width="32" height="32"/>
</g>
		<g transform="matrix(16.8872 0 0 16.6782 -0.0001 -0.0006)" id="document_x5F_text_x5F_accept">
<path style="stroke: none; stroke-width: 1; stroke-dasharray: none; stroke-linecap: butt; stroke-dashoffset: 0; stroke-linejoin: miter; stroke-miterlimit: 4; is-custom-font: none; font-file-url: none; fill: rgb(255,0,0); fill-rule: nonzero; opacity: 1;" transform=" translate(-16, -16)" d="M 24 14.059 V 5.584 L 18.414 0 H 0 v 32 h 24 v -0.059 c 4.499 -0.5 7.998 -4.309 8 -8.941 C 31.998 18.366 28.499 14.556 24 14.059 z M 17.998 2.413 L 21.586 6 h -3.588 V 2.413 z M 2 30 V 1.998 h 14 v 6.001 h 6 v 6.06 c -1.752 0.194 -3.352 0.89 -4.652 1.941 H 4 v 2 h 11.517 c -0.412 0.616 -0.743 1.289 -0.994 2 H 4 v 2 h 10.059 C 14.022 22.329 14 22.661 14 23 c 0 2.829 1.308 5.351 3.349 7 H 2 z M 23 29.883 c -3.801 -0.009 -6.876 -3.084 -6.885 -6.883 c 0.009 -3.801 3.084 -6.876 6.885 -6.885 c 3.799 0.009 6.874 3.084 6.883 6.885 C 29.874 26.799 26.799 29.874 23 29.883 z M 20 12 H 4 v 2 h 16 V 12 z" stroke-linecap="round"/>
</g>
		<g transform="matrix(16.8872 0 0 16.6782 118.2104 116.7475)" id="document_x5F_text_x5F_accept">
<polygon style="stroke: none; stroke-width: 1; stroke-dasharray: none; stroke-linecap: butt; stroke-dashoffset: 0; stroke-linejoin: miter; stroke-miterlimit: 4; is-custom-font: none; font-file-url: none; fill: rgb(255,0,0); fill-rule: nonzero; opacity: 1;" points="-5,0 -3,-2 -1,0 3,-4 5,-2 -1,4 "/>
</g>
</g>
</g>
<g transform="matrix(4.4073 0 0 3.404 591.2702 511.9902)" id="742275">
<rect style="stroke: none; stroke-width: 1; stroke-dasharray: none; stroke-linecap: butt; stroke-dashoffset: 0; stroke-linejoin: miter; stroke-miterlimit: 4; is-custom-font: none; font-file-url: none; fill: rgb(249,249,249); fill-rule: nonzero; opacity: 1;" vector-effect="non-scaling-stroke" x="-20" y="-20" rx="0" ry="0" width="40" height="40"/>
</g>
<g transform="matrix(10.6656 0 0 10.5089 589.622 507.811)" id="483282">
<g style="" vector-effect="non-scaling-stroke">
		<g transform="matrix(1 0 0 1 0 0)" id="Layer_2">
<path style="stroke: none; stroke-width: 1; stroke-dasharray: none; stroke-linecap: butt; stroke-dashoffset: 0; stroke-linejoin: miter; stroke-miterlimit: 4; is-custom-font: none; font-file-url: none; fill: rgb(255,0,0); fill-rule: nonzero; opacity: 1;" transform=" translate(-16, -16)" d="M 16 29 A 13 13 0 1 1 29 16 A 13 13 0 0 1 16 29 Z M 16 5 A 11 11 0 1 0 27 16 A 11 11 0 0 0 16 5 Z" stroke-linecap="round"/>
</g>
		<g transform="matrix(1 0 0 1 2.7529 -1.25)" id="Layer_2">
<path style="stroke: none; stroke-width: 1; stroke-dasharray: none; stroke-linecap: butt; stroke-dashoffset: 0; stroke-linejoin: miter; stroke-miterlimit: 4; is-custom-font: none; font-file-url: none; fill: rgb(255,0,0); fill-rule: nonzero; opacity: 1;" transform=" translate(-18.7529, -14.75)" d="M 21.5 22.5 a 1 1 0 0 1 -0.71 -0.29 l -5.5 -5.5 A 1 1 0 0 1 15 16 V 8 a 1 1 0 0 1 2 0 v 7.59 l 5.21 5.2 a 1 1 0 0 1 0 1.42 A 1 1 0 0 1 21.5 22.5 Z" stroke-linecap="round"/>
</g>
		<g transform="matrix(1 0 0 1 0 0)" id="frame">
<rect style="stroke: none; stroke-width: 1; stroke-dasharray: none; stroke-linecap: butt; stroke-dashoffset: 0; stroke-linejoin: miter; stroke-miterlimit: 4; is-custom-font: none; font-file-url: none; fill: none; fill-rule: nonzero; opacity: 1;" x="-16" y="-16" rx="0" ry="0" width="32" height="32"/>
</g>
</g>
</g>
</svg>