<svg xmlns="http://www.w3.org/2000/svg" xmlns:xlink="http://www.w3.org/1999/xlink" version="1.1" width="940" height="788" viewBox="0 0 940 788" xml:space="preserve">
<desc>Created with Fabric.js 3.5.0</desc>
<defs>
</defs>
<rect x="0" y="0" width="100%" height="100%" fill="#f9f9f9"/>
<g transform="matrix(4.1998 0 0 5.2446 528.0639 342.518)" id="909968">
<rect style="stroke: none; stroke-width: 0; stroke-dasharray: none; stroke-linecap: butt; stroke-dashoffset: 0; stroke-linejoin: miter; stroke-miterlimit: 4; is-custom-font: none; font-file-url: none; fill: rgb(249,249,249); fill-rule: nonzero; opacity: 1;" vector-effect="non-scaling-stroke" x="-20" y="-20" rx="0" ry="0" width="40" height="40"/>
</g>
<g transform="matrix(3.7282 0 0 4.9103 690.1946 366.4334)" id="195499">
<rect style="stroke: none; stroke-width: 1; stroke-dasharray: none; stroke-linecap: butt; stroke-dashoffset: 0; stroke-linejoin: miter; stroke-miterlimit: 4; is-custom-font: none; font-file-url: none; fill: rgb(249,249,249); fill-rule: nonzero; opacity: 1;" vector-effect="non-scaling-stroke" x="-20" y="-20" rx="0" ry="0" width="40" height="40"/>
</g>
<g transform="matrix(10.7702 0 0 6.2694 470.0007 418.193)" id="794857">
<g style="" vector-effect="non-scaling-stroke">
		<g transform="matrix(1 0 0 1 0 -10)" id="Layer_1">
<path style="stroke: none; stroke-width: 1; stroke-dasharray: none; stroke-linecap: butt; stroke-dashoffset: 0; stroke-linejoin: miter; stroke-miterlimit: 4; is-custom-font: none; font-file-url: none; fill: rgb(0,0,0); fill-rule: nonzero; opacity: 1;" transform=" translate(-24, -14)" d="M 24 26 c 6.6 0 12 -5.4 12 -12 S 30.6 2 24 2 c -6.6 0 -12 5.4 -12 12 S 17.4 26 24 26 z M 24 4 c 5.5 0 10 4.5 10 10 s -4.5 10 -10 10 c -5.5 0 -10 -4.5 -10 -10 S 18.5 4 24 4 z" stroke-linecap="round"/>
</g>
		<g transform="matrix(1 0 0 1 -6.5 13)" id="Layer_1">
<path style="stroke: none; stroke-width: 1; stroke-dasharray: none; stroke-linecap: butt; stroke-dashoffset: 0; stroke-linejoin: miter; stroke-miterlimit: 4; is-custom-font: none; font-file-url: none; fill: rgb(0,0,0); fill-rule: nonzero; opacity: 1;" transform=" translate(-17.5, -37)" d="M 33 28 H 15 C 7.8 28 2 33.8 2 41 v 5 h 2 v -5 c 0 -6.1 4.9 -11 11 -11 h 18 V 28 z" stroke-linecap="round"/>
</g>
		<g transform="matrix(1 0 0 1 15 15)" id="Layer_1">
<polygon style="stroke: none; stroke-width: 1; stroke-dasharray: none; stroke-linecap: butt; stroke-dashoffset: 0; stroke-linejoin: miter; stroke-miterlimit: 4; is-custom-font: none; font-file-url: none; fill: rgb(0,0,0); fill-rule: nonzero; opacity: 1;" points="7,-1 1,-1 1,-7 -1,-7 -1,-1 -7,-1 -7,1 -1,1 -1,7 1,7 1,1 7,1 "/>
</g>
</g>
</g>
<g transform="matrix(5.5275 0 0 3.7397 650.8939 533.7605)" id="760126">
<rect style="stroke: none; stroke-width: 1; stroke-dasharray: none; stroke-linecap: butt; stroke-dashoffset: 0; stroke-linejoin: miter; stroke-miterlimit: 4; is-custom-font: none; font-file-url: none; fill: rgb(249,249,249); fill-rule: nonzero; opacity: 1;" vector-effect="non-scaling-stroke" x="-20" y="-20" rx="0" ry="0" width="40" height="40"/>
</g>
<g transform="matrix(11.1308 0 0 6.4593 606.6269 512.5239)" id="545332">
<g style="" vector-effect="non-scaling-stroke">
		<g transform="matrix(1 0 0 1 -1 1)">
<path style="stroke: none; stroke-width: 1; stroke-dasharray: none; stroke-linecap: butt; stroke-dashoffset: 0; stroke-linejoin: miter; stroke-miterlimit: 4; is-custom-font: none; font-file-url: none; fill: rgb(0,0,0); fill-rule: nonzero; opacity: 1;" transform=" translate(-11, -13)" d="M 17 22 H 5 a 3 3 0 0 1 -3 -3 V 7 A 3 3 0 0 1 5 4 H 9 A 1 1 0 0 1 9 6 H 5 A 1 1 0 0 0 4 7 V 19 a 1 1 0 0 0 1 1 H 17 a 1 1 0 0 0 1 -1 V 15 a 1 1 0 0 1 2 0 v 4 A 3 3 0 0 1 17 22 Z" stroke-linecap="round"/>
</g>
		<g transform="matrix(1 0 0 1 1.3157 -1.3117)">
<path style="stroke: none; stroke-width: 1; stroke-dasharray: none; stroke-linecap: butt; stroke-dashoffset: 0; stroke-linejoin: miter; stroke-miterlimit: 4; is-custom-font: none; font-file-url: none; fill: rgb(0,0,0); fill-rule: nonzero; opacity: 1;" transform=" translate(-13.3156, -10.6883)" d="M 14.6 5.87 l -4.95 5 a 0.41 0.41 0 0 0 -0.13 0.23 l -1 3.82 a 0.48 0.48 0 0 0 0.13 0.48 A 0.47 0.47 0 0 0 9 15.5 a 0.32 0.32 0 0 0 0.13 0 l 3.82 -1 a 0.41 0.41 0 0 0 0.23 -0.13 L 18.13 9.4 Z" stroke-linecap="round"/>
</g>
		<g transform="matrix(1 0 0 1 6.7177 -6.7178)">
<path style="stroke: none; stroke-width: 1; stroke-dasharray: none; stroke-linecap: butt; stroke-dashoffset: 0; stroke-linejoin: miter; stroke-miterlimit: 4; is-custom-font: none; font-file-url: none; fill: rgb(0,0,0); fill-rule: nonzero; opacity: 1;" transform=" translate(-18.7177, -5.2823)" d="M 21 4.45 L 19.55 3 a 1.52 1.52 0 0 0 -2.13 0 L 16 4.45 L 19.55 8 L 21 6.58 A 1.52 1.52 0 0 0 21 4.45 Z" stroke-linecap="round"/>
</g>
</g>
</g>
</svg>