<svg xmlns="http://www.w3.org/2000/svg" xmlns:xlink="http://www.w3.org/1999/xlink" version="1.1" width="940" height="788" viewBox="0 0 940 788" xml:space="preserve">
<desc>Created with Fabric.js 3.5.0</desc>
<defs>
</defs>
<rect x="0" y="0" width="100%" height="100%" fill="#f9f9f9"/>
<g transform="matrix(4.4073 0 0 3.404 590.7702 511.4902)" id="495584">
<rect style="stroke: none; stroke-width: 0; stroke-dasharray: none; stroke-linecap: butt; stroke-dashoffset: 0; stroke-linejoin: miter; stroke-miterlimit: 4; is-custom-font: none; font-file-url: none; fill: rgb(249,249,249); fill-rule: nonzero; opacity: 1;" vector-effect="non-scaling-stroke" x="-20" y="-20" rx="0" ry="0" width="40" height="40"/>
</g>
<g transform="matrix(6.7403 0 0 6.7926 574.2678 417.4707)" id="800879">
<rect style="stroke: none; stroke-width: 0; stroke-dasharray: none; stroke-linecap: butt; stroke-dashoffset: 0; stroke-linejoin: miter; stroke-miterlimit: 4; is-custom-font: none; font-file-url: none; fill: rgb(249,249,249); fill-rule: nonzero; opacity: 1;" vector-effect="non-scaling-stroke" x="-20" y="-20" rx="0" ry="0" width="40" height="40"/>
</g>
<g transform="matrix(3.9836 0 0 3.6215 573.7668 408.4367)" id="682729">
<rect style="stroke: none; stroke-width: 0; stroke-dasharray: none; stroke-linecap: butt; stroke-dashoffset: 0; stroke-linejoin: miter; stroke-miterlimit: 4; is-custom-font: none; font-file-url: none; fill: rgb(249,249,249); fill-rule: nonzero; opacity: 1;" vector-effect="non-scaling-stroke" x="-20" y="-20" rx="0" ry="0" width="40" height="40"/>
</g>
<g transform="matrix(4.31 0 0 3.2949 691.4923 561.1605)" id="327398">
<rect style="stroke: none; stroke-width: 0; stroke-dasharray: none; stroke-linecap: butt; stroke-dashoffset: 0; stroke-linejoin: miter; stroke-miterlimit: 4; is-custom-font: none; font-file-url: none; fill: rgb(249,249,249); fill-rule: nonzero; opacity: 1;" vector-effect="non-scaling-stroke" x="-20" y="-20" rx="0" ry="0" width="40" height="40"/>
</g>
<g transform="matrix(4.148 0 0 1 688.2523 497.2292)" id="119733">
<rect style="stroke: none; stroke-width: 0; stroke-dasharray: none; stroke-linecap: butt; stroke-dashoffset: 0; stroke-linejoin: miter; stroke-miterlimit: 4; is-custom-font: none; font-file-url: none; fill: rgb(249,249,249); fill-rule: nonzero; opacity: 1;" vector-effect="non-scaling-stroke" x="-20" y="-20" rx="0" ry="0" width="40" height="40"/>
</g>
<g transform="matrix(1.5115 0 0 2.3912 762.4731 515.0149)" id="367799">
<rect style="stroke: none; stroke-width: 0; stroke-dasharray: none; stroke-linecap: butt; stroke-dashoffset: 0; stroke-linejoin: miter; stroke-miterlimit: 4; is-custom-font: none; font-file-url: none; fill: rgb(249,249,249); fill-rule: nonzero; opacity: 1;" vector-effect="non-scaling-stroke" x="-20" y="-20" rx="0" ry="0" width="40" height="40"/>
</g>
<g transform="matrix(1 0 0 1 606.689 549.0939)" id="415557">
<rect style="stroke: none; stroke-width: 0; stroke-dasharray: none; stroke-linecap: butt; stroke-dashoffset: 0; stroke-linejoin: miter; stroke-miterlimit: 4; is-custom-font: none; font-file-url: none; fill: rgb(249,249,249); fill-rule: nonzero; opacity: 1;" vector-effect="non-scaling-stroke" x="-20" y="-20" rx="0" ry="0" width="40" height="40"/>
</g>
<g transform="matrix(18.9611 0 0 14.3255 482.5484 393.9998)" id="627374">
<g style="" vector-effect="non-scaling-stroke">
		<g transform="matrix(1 0 0 1 0 -10)" id="Layer_1">
<path style="stroke: none; stroke-width: 1; stroke-dasharray: none; stroke-linecap: butt; stroke-dashoffset: 0; stroke-linejoin: miter; stroke-miterlimit: 4; is-custom-font: none; font-file-url: none; fill: rgb(0,0,0); fill-rule: nonzero; opacity: 1;" transform=" translate(-24, -14)" d="M 24 26 c 6.6 0 12 -5.4 12 -12 S 30.6 2 24 2 c -6.6 0 -12 5.4 -12 12 S 17.4 26 24 26 z M 24 4 c 5.5 0 10 4.5 10 10 s -4.5 10 -10 10 c -5.5 0 -10 -4.5 -10 -10 S 18.5 4 24 4 z" stroke-linecap="round"/>
</g>
		<g transform="matrix(1 0 0 1 -6.5 13)" id="Layer_1">
<path style="stroke: none; stroke-width: 1; stroke-dasharray: none; stroke-linecap: butt; stroke-dashoffset: 0; stroke-linejoin: miter; stroke-miterlimit: 4; is-custom-font: none; font-file-url: none; fill: rgb(0,0,0); fill-rule: nonzero; opacity: 1;" transform=" translate(-17.5, -37)" d="M 33 28 H 15 C 7.8 28 2 33.8 2 41 v 5 h 2 v -5 c 0 -6.1 4.9 -11 11 -11 h 18 V 28 z" stroke-linecap="round"/>
</g>
		<g transform="matrix(1 0 0 1 15 15)" id="Layer_1">
<polygon style="stroke: none; stroke-width: 1; stroke-dasharray: none; stroke-linecap: butt; stroke-dashoffset: 0; stroke-linejoin: miter; stroke-miterlimit: 4; is-custom-font: none; font-file-url: none; fill: rgb(0,0,0); fill-rule: nonzero; opacity: 1;" points="7,-1 1,-1 1,-7 -1,-7 -1,-1 -7,-1 -7,1 -1,1 -1,7 1,7 1,1 7,1 "/>
</g>
</g>
</g>
<g transform="matrix(7.4094 0 0 6.0398 772.1838 616.5585)" id="147306">
<rect style="stroke: none; stroke-width: 1; stroke-dasharray: none; stroke-linecap: butt; stroke-dashoffset: 0; stroke-linejoin: miter; stroke-miterlimit: 4; is-custom-font: none; font-file-url: none; fill: rgb(249,249,249); fill-rule: nonzero; opacity: 1;" vector-effect="non-scaling-stroke" x="-20" y="-20" rx="0" ry="0" width="40" height="40"/>
</g>
<g transform="matrix(13.2872 0 0 12.0524 744.221 533.3065)" id="789270">
<g style="" vector-effect="non-scaling-stroke">
		<g transform="matrix(1 0 0 1 646 130.999)" id="Layer_1">
<polyline style="stroke: rgb(255,255,255); stroke-width: 2; stroke-dasharray: none; stroke-linecap: round; stroke-dashoffset: 0; stroke-linejoin: round; stroke-miterlimit: 10; is-custom-font: none; font-file-url: none; fill: none; fill-rule: nonzero; opacity: 1;" points="-13,-9 13,-9 13,9 -1,9 "/>
</g>
		<g transform="matrix(1 0 0 1 635 132.999)" id="Layer_1">
<polyline style="stroke: rgb(255,255,255); stroke-width: 2; stroke-dasharray: none; stroke-linecap: round; stroke-dashoffset: 0; stroke-linejoin: round; stroke-miterlimit: 10; is-custom-font: none; font-file-url: none; fill: none; fill-rule: nonzero; opacity: 1;" points="2,7 -2,7 -2,-7 "/>
</g>
		<g transform="matrix(1 0 0 1 641 143)" id="Layer_1">
<polyline style="stroke: rgb(255,255,255); stroke-width: 2; stroke-dasharray: none; stroke-linecap: round; stroke-dashoffset: 0; stroke-linejoin: round; stroke-miterlimit: 10; is-custom-font: none; font-file-url: none; fill: none; fill-rule: nonzero; opacity: 1;" points="4,-3 -4,3 -4,-3 "/>
</g>
		<g transform="matrix(1 0 0 1 -0.0016 -0.0012)" id="Layer_1">
<path style="stroke: none; stroke-width: 1; stroke-dasharray: none; stroke-linecap: butt; stroke-dashoffset: 0; stroke-linejoin: miter; stroke-miterlimit: 4; is-custom-font: none; font-file-url: none; fill: rgb(0,0,0); fill-rule: nonzero; opacity: 1;" transform=" translate(-15.9984, -15.9988)" d="M 28.172 3.828 c -0.964 -0.964 -2.186 -1.575 -3.533 -1.767 c -1.961 -0.278 -3.895 0.367 -5.294 1.767 c -0.391 0.391 -0.391 1.024 0 1.415 c 0.021 0.021 0.048 0.028 0.07 0.046 c 0.018 0.021 0.025 0.048 0.046 0.069 l 2.884 2.884 L 7.449 23.138 l -2.293 -2.293 L 17.793 8.208 c 0.391 -0.391 0.391 -1.023 0 -1.414 s -1.023 -0.391 -1.414 0 L 3.037 20.136 c -0.001 0.001 -0.002 0.001 -0.003 0.002 L 2.292 20.88 c -0.094 0.094 -0.167 0.206 -0.217 0.327 C 2.026 21.329 2 21.458 2 21.587 V 29 c 0 0.553 0.448 1 1 1 h 7.414 c 0.265 0 0.52 -0.105 0.707 -0.293 l 17.051 -17.051 C 30.605 10.222 30.605 6.262 28.172 3.828 z M 24.358 4.042 c 0.914 0.13 1.744 0.545 2.399 1.2 c 1.409 1.41 1.606 3.567 0.614 5.199 l -2.906 -2.907 l 0 0 l 0 0 l -2.916 -2.916 C 22.38 4.109 23.363 3.901 24.358 4.042 z M 4 28 v -5.482 l 2.74 2.74 c 0.001 0.001 0.001 0.002 0.001 0.002 s 0.002 0.001 0.002 0.001 L 9.482 28 H 4 z M 8.863 24.552 L 23.758 9.656 l 2.293 2.293 L 11.155 26.845 L 8.863 24.552 z" stroke-linecap="round"/>
</g>
</g>
</g>
</svg>