<svg xmlns="http://www.w3.org/2000/svg" xmlns:xlink="http://www.w3.org/1999/xlink" version="1.1" width="940" height="788" viewBox="0 0 940 788" xml:space="preserve">
<desc>Created with Fabric.js 3.5.0</desc>
<defs>
</defs>
<rect x="0" y="0" width="100%" height="100%" fill="rgba(249,249,249,0)"/>
<g transform="matrix(22.2779 0 0 20.3665 510.6384 393.9998)" id="332088">
<g style="" vector-effect="non-scaling-stroke">
		<g transform="matrix(1 0 0 1 -4.1265 6.0771)">
<path style="stroke: rgb(0,0,0); stroke-width: 1; stroke-dasharray: none; stroke-linecap: round; stroke-dashoffset: 0; stroke-linejoin: miter; stroke-miterlimit: 4; is-custom-font: none; font-file-url: none; fill: none; fill-rule: nonzero; opacity: 1;" transform=" translate(-7.8736, -18.0771)" d="M 2.00002 21.154 C 2.00002 16.6893 6.07022 15.0002 10 15.0002 C 11.2829 15.0002 12.5807 15.1802 13.7471 15.578" stroke-linecap="round"/>
</g>
		<g transform="matrix(1 0 0 1 -2.0001 -4.3846)">
<path style="stroke: rgb(0,0,0); stroke-width: 1; stroke-dasharray: none; stroke-linecap: butt; stroke-dashoffset: 0; stroke-linejoin: miter; stroke-miterlimit: 4; is-custom-font: none; font-file-url: none; fill: none; fill-rule: nonzero; opacity: 1;" transform=" translate(-9.9999, -7.6153)" d="M 14.3076 7.23664 C 14.3076 9.74643 14.0204 12.5384 9.99989 12.5384 C 5.9794 12.5384 5.6922 9.74643 5.6922 7.23664 C 5.6922 4.72685 7.62082 2.69226 9.99989 2.69226 C 12.379 2.69226 14.3076 4.72685 14.3076 7.23664 Z" stroke-linecap="round"/>
</g>
		<g transform="matrix(1 0 0 1 5.9977 4.6243)">
<path style="stroke: rgb(0,0,0); stroke-width: 1; stroke-dasharray: none; stroke-linecap: butt; stroke-dashoffset: 0; stroke-linejoin: miter; stroke-miterlimit: 4; is-custom-font: none; font-file-url: none; fill: none; fill-rule: nonzero; opacity: 1;" transform=" translate(-17.9977, -16.6242)" d="M 14.4213 18.3197 L 19.3957 12.4213 L 20.0459 12.2487 L 21.8155 13.7411 L 21.7551 14.4112 L 16.7808 20.3095 L 14.1798 20.9998 L 14.4213 18.3197 Z" stroke-linecap="round"/>
</g>
		<g transform="matrix(1 0 0 1 7.6743 2.459)">
<path style="stroke: rgb(0,0,0); stroke-width: 1; stroke-dasharray: none; stroke-linecap: butt; stroke-dashoffset: 0; stroke-linejoin: miter; stroke-miterlimit: 4; is-custom-font: none; font-file-url: none; fill: none; fill-rule: nonzero; opacity: 1;" transform=" translate(-19.6743, -14.459)" d="M 18.4635 13.3828 L 20.885 15.5353" stroke-linecap="round"/>
</g>
</g>
</g>
</svg>