<svg xmlns="http://www.w3.org/2000/svg" xmlns:xlink="http://www.w3.org/1999/xlink" version="1.1" width="940" height="788" viewBox="0 0 940 788" xml:space="preserve">
<desc>Created with Fabric.js 3.5.0</desc>
<defs>
</defs>
<rect x="0" y="0" width="100%" height="100%" fill="#f9f9f9"/>
<g transform="matrix(4.4073 0 0 3.404 590.7702 511.4902)" id="917200">
<rect style="stroke: none; stroke-width: 0; stroke-dasharray: none; stroke-linecap: butt; stroke-dashoffset: 0; stroke-linejoin: miter; stroke-miterlimit: 4; is-custom-font: none; font-file-url: none; fill: rgb(249,249,249); fill-rule: nonzero; opacity: 1;" vector-effect="non-scaling-stroke" x="-20" y="-20" rx="0" ry="0" width="40" height="40"/>
</g>
<g transform="matrix(33.7208 0 0 26.754 459.1226 417.9709)" id="470894">
<path style="stroke: none; stroke-width: 1; stroke-dasharray: none; stroke-linecap: butt; stroke-dashoffset: 0; stroke-linejoin: miter; stroke-miterlimit: 4; is-custom-font: none; font-file-url: none; fill: rgb(101,187,110); fill-rule: evenodd; opacity: 1;" vector-effect="non-scaling-stroke" transform=" translate(-803.5, -239)" d="M 799 231.52 L 799 244.94 C 799 244.94 799 250.000002 803.5 250 C 808 249.999998 808 244.94 808 244.94 L 808 231.52 C 808 230.97 807 230.97 807 231.52 L 807 244.940001 C 807 244.940001 807.363636 249 803.5 249 C 800 249 800 244.940001 800 244.940001 L 800 231.52 C 800 231.52 800 229.000001 802.5 229 C 805 228.999999 805 231.52 805 231.52 L 805 244.940001 C 805 244.940001 805 246.517555 803.540816 246.517554 C 802.081633 246.517552 802 244.940001 802 244.940001 L 802 232.18 C 802 231.63 801 231.63 801 232.18 L 801 244.94 C 801 244.94 800.813544 247.617556 803.540816 247.617554 C 806 247.617552 806 244.94 806 244.94 L 806 231.52 C 806 231.52 806 227.999999 802.5 228 C 799 228.000001 799 231.52 799 231.52 Z" stroke-linecap="round"/>
</g>
<g transform="matrix(6.7403 0 0 6.7926 574.2678 417.4707)" id="717479">
<rect style="stroke: none; stroke-width: 0; stroke-dasharray: none; stroke-linecap: butt; stroke-dashoffset: 0; stroke-linejoin: miter; stroke-miterlimit: 4; is-custom-font: none; font-file-url: none; fill: rgb(249,249,249); fill-rule: nonzero; opacity: 1;" vector-effect="non-scaling-stroke" x="-20" y="-20" rx="0" ry="0" width="40" height="40"/>
</g>
<g transform="matrix(9.937 0 0 9.8815 551.0896 421.4662)" id="448526">
<g style="" vector-effect="non-scaling-stroke">
		<g transform="matrix(1 0 0 1 0 0)" id="380465">
<path style="stroke: none; stroke-width: 1; stroke-dasharray: none; stroke-linecap: butt; stroke-dashoffset: 0; stroke-linejoin: miter; stroke-miterlimit: 4; is-custom-font: none; font-file-url: none; fill: rgb(101,187,110); fill-rule: nonzero; opacity: 1;" transform=" translate(-16, -16)" d="M 16 31 A 15 15 0 1 1 31 16 A 15 15 0 0 1 16 31 Z M 16 3 A 13 13 0 1 0 29 16 A 13 13 0 0 0 16 3 Z" stroke-linecap="round"/>
</g>
		<g transform="matrix(1 0 0 1 2.33 -1.17)" id="412282">
<path style="stroke: none; stroke-width: 1; stroke-dasharray: none; stroke-linecap: butt; stroke-dashoffset: 0; stroke-linejoin: miter; stroke-miterlimit: 4; is-custom-font: none; font-file-url: none; fill: rgb(101,187,110); fill-rule: nonzero; opacity: 1;" transform=" translate(-18.33, -14.83)" d="M 20.24 21.66 l -4.95 -4.95 A 1 1 0 0 1 15 16 V 8 h 2 v 7.59 l 4.66 4.65 Z" stroke-linecap="round"/>
</g>
</g>
</g>
<g transform="matrix(3.9836 0 0 3.6215 574.2668 408.9367)" id="930115">
<rect style="stroke: none; stroke-width: 1; stroke-dasharray: none; stroke-linecap: butt; stroke-dashoffset: 0; stroke-linejoin: miter; stroke-miterlimit: 4; is-custom-font: none; font-file-url: none; fill: rgb(249,249,249); fill-rule: nonzero; opacity: 1;" vector-effect="non-scaling-stroke" x="-20" y="-20" rx="0" ry="0" width="40" height="40"/>
</g>
<g transform="matrix(1.7518 0 0 1.8736 550.9999 422.2705)" id="831594">
<g style="" vector-effect="non-scaling-stroke">
		<g transform="matrix(1 0 0 1 -1.0744 0.1194)">
<path style="stroke: none; stroke-width: 1; stroke-dasharray: none; stroke-linecap: butt; stroke-dashoffset: 0; stroke-linejoin: miter; stroke-miterlimit: 4; is-custom-font: none; font-file-url: none; fill: rgb(101,187,110); fill-rule: nonzero; opacity: 1;" transform=" translate(-83.9256, -81.6193)" d="M 142.196 30.4125 C 142.586 30.0637 142.897 29.6356 143.109 29.1567 C 143.32 28.6778 143.427 28.1592 143.422 27.6357 C 143.417 27.1122 143.3 26.5959 143.079 26.1213 C 142.858 25.6467 142.538 25.2248 142.141 24.8838 C 141.722 24.5249 141.307 24.1678 140.895 23.8127 C 137.751 21.1093 134.5 18.3102 131.1 15.9225 C 105.123 -2.36044 78.1316 -2.4633 50.8803 7.23287 C 26.2068 16.0055 10.3619 33.5563 3.77909 59.3882 C -3.56415 88.249 2.86618 113.71 22.9048 135.073 C 23.4261 135.625 23.9582 136.177 24.4895 136.704 C 35.2539 147.469 48.6614 154.115 59.2847 158.739 C 63.8445 160.731 87.2404 163.149 93.5707 162.206 C 131.19 156.588 155.946 135.37 164.569 99.8725 C 166.215 92.9194 167.035 85.7962 167.011 78.6508 C 166.974 71.1466 165.712 63.6988 163.275 56.6012 C 163.097 56.0703 162.805 55.5851 162.418 55.1805 C 162.031 54.7759 161.56 54.4618 161.037 54.2606 C 160.515 54.0595 159.954 53.9764 159.396 54.0171 C 158.838 54.0579 158.295 54.2216 157.808 54.4965 L 157.706 54.5547 C 156.931 54.9984 156.336 55.7005 156.027 56.5381 C 155.717 57.3757 155.712 58.2954 156.012 59.1364 C 158.212 65.2371 159.334 71.674 159.327 78.1592 C 159.251 85.9394 158.198 93.6792 156.192 101.197 C 150.248 122.8 136.038 138.545 112.75 149.315 C 89.0741 160.65 55.1215 149.19 46.0879 143.226 C 36.1031 136.4 27.3663 127.908 20.2596 118.121 C 9.11418 102.34 6.61369 79.6587 12.6028 58.9229 C 15.4055 49.3489 20.3036 40.5185 26.9421 33.0722 C 33.5806 25.6259 41.793 19.7503 50.9838 15.8714 C 74.8941 5.93474 98.8852 4.18192 122.285 19.0635 C 125.422 21.061 133.422 27.3424 137.465 30.5501 C 138.143 31.0882 138.99 31.3691 139.855 31.3432 C 140.721 31.3172 141.549 30.986 142.194 30.4082 L 142.196 30.4125 Z" stroke-linecap="round"/>
</g>
		<g transform="matrix(1 0 0 1 20.1444 -13.4888)">
<path style="stroke: none; stroke-width: 1; stroke-dasharray: none; stroke-linecap: butt; stroke-dashoffset: 0; stroke-linejoin: miter; stroke-miterlimit: 4; is-custom-font: none; font-file-url: none; fill: rgb(101,187,110); fill-rule: nonzero; opacity: 1;" transform=" translate(-105.1444, -68.0112)" d="M 74.6287 104.313 C 76.2312 102.79 77.1115 102.019 77.9173 101.177 C 103.753 74.1855 132.047 49.8851 160.508 25.7727 C 161.584 24.8619 162.685 23.7 163.958 23.3737 C 165.493 22.9815 167.996 23.4326 168.682 24.2661 C 169.133 24.8821 169.418 25.6035 169.509 26.3612 C 169.601 27.1189 169.496 27.8875 169.206 28.5932 C 168.537 30.3474 166.907 31.8498 165.429 33.1629 C 156.607 41.0019 147.538 48.5708 138.872 56.5716 C 120.756 73.3024 102.756 90.1576 84.8704 107.137 C 77.0334 114.561 74.0173 114.862 66.8059 106.929 C 62.0589 101.705 47.7328 84.0973 43.3455 78.5495 C 42.7256 77.6872 42.1735 76.7781 41.6941 75.8305 C 40.7045 74.0756 40.0576 72.1419 42.0246 70.7814 C 44.2158 69.2662 45.7707 70.8473 47.0696 72.4937 C 48.384 74.1607 49.5048 75.9916 50.9121 77.5713 C 55.2811 82.4737 69.908 99.1421 74.6287 104.313 Z" stroke-linecap="round"/>
</g>
</g>
</g>
</svg>