<svg xmlns="http://www.w3.org/2000/svg" xmlns:xlink="http://www.w3.org/1999/xlink" version="1.1" width="940" height="788" viewBox="0 0 940 788" xml:space="preserve">
<desc>Created with Fabric.js 3.5.0</desc>
<defs>
</defs>
<rect x="0" y="0" width="100%" height="100%" fill="#ffffff"/>
<g transform="matrix(11.9901 0 0 12.2297 536.0852 422.5932)" id="92755">
<g style="" vector-effect="non-scaling-stroke">
		<g transform="matrix(1 0 0 1 -5 0)" id="670391">
<path style="stroke: none; stroke-width: 1; stroke-dasharray: none; stroke-linecap: butt; stroke-dashoffset: 0; stroke-linejoin: miter; stroke-miterlimit: 4; is-custom-font: none; font-file-url: none; fill: rgb(247,13,13); fill-rule: nonzero; opacity: 1;" transform=" translate(-19, -24)" d="M 2 45 V 3 A 1 1 0 0 1 3 2 H 28 V 7 a 3 3 0 0 0 3 3 h 5 v 3 h 2 V 9 a 1 1 0 0 0 -0.29 -0.71 l -8 -8 A 1 1 0 0 0 29 0 H 3 A 3 3 0 0 0 0 3 V 45 a 3 3 0 0 0 3 3 H 17 V 46 H 3 A 1 1 0 0 1 2 45 Z M 30 3.41 L 34.59 8 H 31 a 1 1 0 0 1 -1 -1 Z" stroke-linecap="round"/>
</g>
		<g transform="matrix(1 0 0 1 -10 -5)" id="961775">
<rect style="stroke: none; stroke-width: 1; stroke-dasharray: none; stroke-linecap: butt; stroke-dashoffset: 0; stroke-linejoin: miter; stroke-miterlimit: 4; is-custom-font: none; font-file-url: none; fill: rgb(247,13,13); fill-rule: nonzero; opacity: 1;" x="-3" y="-1" rx="0" ry="0" width="6" height="2"/>
</g>
		<g transform="matrix(1 0 0 1 -12 1)" id="424113">
<rect style="stroke: none; stroke-width: 1; stroke-dasharray: none; stroke-linecap: butt; stroke-dashoffset: 0; stroke-linejoin: miter; stroke-miterlimit: 4; is-custom-font: none; font-file-url: none; fill: rgb(247,13,13); fill-rule: nonzero; opacity: 1;" x="-5" y="-1" rx="0" ry="0" width="10" height="2"/>
</g>
		<g transform="matrix(1 0 0 1 -12.5 7)" id="778090">
<rect style="stroke: none; stroke-width: 1; stroke-dasharray: none; stroke-linecap: butt; stroke-dashoffset: 0; stroke-linejoin: miter; stroke-miterlimit: 4; is-custom-font: none; font-file-url: none; fill: rgb(247,13,13); fill-rule: nonzero; opacity: 1;" x="-4.5" y="-1" rx="0" ry="0" width="9" height="2"/>
</g>
		<g transform="matrix(1 0 0 1 -12.5 13)" id="629626">
<rect style="stroke: none; stroke-width: 1; stroke-dasharray: none; stroke-linecap: butt; stroke-dashoffset: 0; stroke-linejoin: miter; stroke-miterlimit: 4; is-custom-font: none; font-file-url: none; fill: rgb(247,13,13); fill-rule: nonzero; opacity: 1;" x="-4.5" y="-1" rx="0" ry="0" width="9" height="2"/>
</g>
		<g transform="matrix(1 0 0 1 10 8)" id="648684">
<path style="stroke: none; stroke-width: 1; stroke-dasharray: none; stroke-linecap: butt; stroke-dashoffset: 0; stroke-linejoin: miter; stroke-miterlimit: 4; is-custom-font: none; font-file-url: none; fill: rgb(247,13,13); fill-rule: nonzero; opacity: 1;" transform=" translate(-34, -32)" d="M 47.71 23.29 l -7 -7 A 1 1 0 0 0 40 16 H 23 a 3 3 0 0 0 -3 3 V 45 a 3 3 0 0 0 3 3 H 45 a 3 3 0 0 0 3 -3 V 24 A 1 1 0 0 0 47.71 23.29 Z M 41 19.41 L 44.59 23 H 42 a 1 1 0 0 1 -1 -1 Z M 46 45 a 1 1 0 0 1 -1 1 H 23 a 1 1 0 0 1 -1 -1 V 19 a 1 1 0 0 1 1 -1 H 39 v 4 a 3 3 0 0 0 3 3 h 4 Z" stroke-linecap="round"/>
</g>
</g>
</g>
<g transform="matrix(0.3053 0 0 0.2635 659.878 538.7595)" id="366024">
<g style="" vector-effect="non-scaling-stroke">
		<g transform="matrix(1.5625 0 0 1.5625 0 0.0008)" id="Layer_1">
<path style="stroke: none; stroke-width: 1; stroke-dasharray: none; stroke-linecap: butt; stroke-dashoffset: 0; stroke-linejoin: miter; stroke-miterlimit: 4; is-custom-font: none; font-file-url: none; fill: rgb(227,32,32); fill-rule: nonzero; opacity: 1;" transform=" translate(-256, -256.0005)" d="M 437.019 74.981 C 388.668 26.629 324.38 0.001 256 0.001 S 123.332 26.629 74.98 74.981 C 26.629 123.333 0 187.621 0 256.001 s 26.629 132.668 74.98 181.019 c 48.352 48.351 112.64 74.98 181.02 74.98 c 68.381 0 132.668 -26.629 181.019 -74.98 C 485.371 388.667 512 324.379 512 255.999 S 485.371 123.333 437.019 74.981 z M 256 477.453 c -122.109 0 -221.453 -99.343 -221.453 -221.453 S 133.891 34.548 256 34.548 s 221.453 99.343 221.453 221.453 S 378.109 477.453 256 477.453 z" stroke-linecap="round"/>
</g>
		<g transform="matrix(1.5625 0 0 1.5625 0.0013 13.6985)" id="Layer_1">
<path style="stroke: none; stroke-width: 1; stroke-dasharray: none; stroke-linecap: butt; stroke-dashoffset: 0; stroke-linejoin: miter; stroke-miterlimit: 4; is-custom-font: none; font-file-url: none; fill: rgb(227,32,32); fill-rule: nonzero; opacity: 1;" transform=" translate(-256.0008, -264.7671)" d="M 393.953 160.709 c -21.906 -21.904 -57.355 -21.906 -79.264 -0.001 l -89.238 89.239 l -28.14 -28.141 c -21.903 -21.903 -57.354 -21.906 -79.262 0 c -21.852 21.852 -21.853 57.408 0 79.26 l 67.772 67.772 c 10.586 10.586 24.66 16.416 39.631 16.416 s 29.045 -5.83 39.631 -16.415 l 128.87 -128.87 C 415.805 218.118 415.805 182.561 393.953 160.709 z M 369.522 215.541 L 240.653 344.41 c -4.061 4.06 -9.459 6.297 -15.202 6.297 s -11.142 -2.237 -15.202 -6.297 l -67.771 -67.772 c -8.383 -8.383 -8.383 -22.022 0 -30.403 c 8.402 -8.401 22 -8.404 30.404 0 l 40.355 40.355 c 3.239 3.239 7.633 5.059 12.214 5.059 s 8.975 -1.82 12.214 -5.059 l 101.453 -101.453 c 8.402 -8.401 22.002 -8.404 30.404 0 C 377.906 193.52 377.906 207.159 369.522 215.541 z" stroke-linecap="round"/>
</g>
</g>
</g>
</svg>