<svg width="40" height="40" viewBox="0 0 40 40" fill="none" xmlns="http://www.w3.org/2000/svg">
<g id="Iconsax/Linear/useredit">
<path id="Vector" d="M20.0003 20C22.2105 20 24.3301 19.1221 25.8929 17.5593C27.4557 15.9965 28.3337 13.8768 28.3337 11.6667C28.3337 9.45657 27.4557 7.33695 25.8929 5.77415C24.3301 4.21135 22.2105 3.33337 20.0003 3.33337C17.7902 3.33337 15.6706 4.21135 14.1078 5.77415C12.545 7.33695 11.667 9.45657 11.667 11.6667C11.667 13.8768 12.545 15.9965 14.1078 17.5593C15.6706 19.1221 17.7902 20 20.0003 20Z" stroke="black" stroke-width="1.5" stroke-linecap="round" stroke-linejoin="round"/>
<path id="Vector_2" d="M32.017 26.2334L26.117 32.1334C25.8837 32.3667 25.667 32.8 25.617 33.1167L25.3004 35.3667C25.1837 36.1834 25.7504 36.75 26.567 36.6334L28.817 36.3167C29.1337 36.2667 29.5837 36.05 29.8004 35.8167L35.7004 29.9167C36.717 28.9 37.2004 27.7167 35.7004 26.2167C34.217 24.7334 33.0337 25.2167 32.017 26.2334Z" stroke="black" stroke-width="1.5" stroke-miterlimit="10" stroke-linecap="round" stroke-linejoin="round"/>
<path id="Vector_3" d="M31.167 27.0834C31.667 28.8834 33.067 30.2834 34.867 30.7834" stroke="black" stroke-width="1.5" stroke-miterlimit="10" stroke-linecap="round" stroke-linejoin="round"/>
<path id="Vector_4" d="M5.68359 36.6667C5.68359 30.2167 12.1003 25 20.0003 25C21.7336 25 23.4003 25.25 24.9503 25.7167" stroke="black" stroke-width="1.5" stroke-linecap="round" stroke-linejoin="round"/>
</g>
</svg>
