<svg width="34" height="37" viewBox="0 0 34 37" fill="none" xmlns="http://www.w3.org/2000/svg">
<path id="Vector" d="M34 36.7824H30.9091V32.1846C30.9066 30.153 30.0917 28.2053 28.6431 26.7687C27.1945 25.3321 25.2305 24.524 23.1818 24.5216H13.9091C11.8604 24.524 9.89641 25.3321 8.44779 26.7687C6.99918 28.2053 6.18427 30.153 6.18182 32.1846V36.7824H3.09091V32.1846C3.09418 29.3403 4.235 26.6134 6.2631 24.6022C8.29119 22.5909 11.0409 21.4596 13.9091 21.4564H23.1818C26.05 21.4596 28.7997 22.5909 30.8278 24.6022C32.8559 26.6134 33.9967 29.3403 34 32.1846V36.7824ZM1.54545 0C1.13557 0 0.742482 0.16147 0.452653 0.448888C0.162825 0.736306 0 1.12613 0 1.5326V15.326H3.09091V1.5326C3.09091 1.12613 2.92808 0.736306 2.63826 0.448888C2.34843 0.16147 1.95533 0 1.54545 0Z" fill="#545454"/>
</svg>
