<svg width="47" height="43" viewBox="0 0 47 43" fill="none" xmlns="http://www.w3.org/2000/svg">
<path id="Vector" d="M15.625 3.0625C17.1702 3.0625 18.6806 3.51153 19.9654 4.35281C21.2502 5.19409 22.2515 6.38983 22.8428 7.78883C23.4341 9.18783 23.5888 10.7272 23.2874 12.2124C22.9859 13.6976 22.2419 15.0618 21.1493 16.1325C20.0567 17.2033 18.6646 17.9325 17.1491 18.2279C15.6337 18.5233 14.0628 18.3717 12.6353 17.7922C11.2077 17.2127 9.98759 16.2314 9.12914 14.9723C8.27069 13.7133 7.8125 12.233 7.8125 10.7188C7.8125 8.68819 8.6356 6.74079 10.1007 5.30496C11.5659 3.86914 13.553 3.0625 15.625 3.0625ZM15.625 0C13.4618 0 11.3471 0.628644 9.54845 1.80644C7.74979 2.98423 6.3479 4.65827 5.52007 6.61686C4.69223 8.57546 4.47564 10.7306 4.89766 12.8099C5.31969 14.8891 6.36138 16.799 7.89102 18.298C9.42066 19.7971 11.3695 20.818 13.4912 21.2315C15.6129 21.6451 17.812 21.4329 19.8106 20.6216C21.8092 19.8103 23.5174 18.4365 24.7192 16.6738C25.921 14.9111 26.5625 12.8387 26.5625 10.7188C26.5625 7.87596 25.4102 5.1496 23.359 3.13945C21.3078 1.12929 18.5258 0 15.625 0ZM31.25 42.875H28.125V35.2188C28.125 33.1882 27.3019 31.2408 25.8368 29.805C24.3716 28.3691 22.3845 27.5625 20.3125 27.5625H10.9375C8.8655 27.5625 6.87836 28.3691 5.41323 29.805C3.9481 31.2408 3.125 33.1882 3.125 35.2188V42.875H0V35.2188C0 32.376 1.15234 29.6496 3.20352 27.6395C5.2547 25.6293 8.03669 24.5 10.9375 24.5H20.3125C23.2133 24.5 25.9953 25.6293 28.0465 27.6395C30.0977 29.6496 31.25 32.376 31.25 35.2188V42.875ZM31.25 3.0625H46.875V6.125H31.25V3.0625ZM31.25 10.7188H46.875V13.7812H31.25V10.7188ZM31.25 18.375H42.1875V21.4375H31.25V18.375Z" fill="#545454"/>
</svg>
