<svg width="37" height="25" viewBox="0 0 37 25" fill="none" xmlns="http://www.w3.org/2000/svg">
<path id="Vector" d="M0 0V3.10662H7.70833V13.9798C7.70833 16.8635 8.84531 19.6292 10.8691 21.6683C12.893 23.7074 15.6379 24.8529 18.5 24.8529C21.3621 24.8529 24.107 23.7074 26.1309 21.6683C28.1547 19.6292 29.2917 16.8635 29.2917 13.9798V3.10662H37V0H0ZM10.7917 3.10662H26.2083V7.76654H10.7917V3.10662ZM18.5 21.7463C16.4556 21.7463 14.495 20.9281 13.0494 19.4716C11.6038 18.015 10.7917 16.0396 10.7917 13.9798V10.8732H26.2083V13.9798C26.2083 16.0396 25.3962 18.015 23.9506 19.4716C22.505 20.9281 20.5444 21.7463 18.5 21.7463Z" fill="#545454"/>
</svg>
